<?xml version="1.0" encoding="UTF-8"?>
<svg xmlns="http://www.w3.org/2000/svg" xmlns:xlink="http://www.w3.org/1999/xlink" width="25px" height="26px" viewBox="0 0 25 25" version="1.1">
<defs>
<filter id="alpha" filterUnits="objectBoundingBox" x="0%" y="0%" width="100%" height="100%">
  <feColorMatrix type="matrix" in="SourceGraphic" values="0 0 0 0 1 0 0 0 0 1 0 0 0 0 1 0 0 0 1 0"/>
</filter>
<mask id="mask0">
  <g filter="url(#alpha)">
<rect x="0" y="0" width="25" height="25" style="fill:rgb(0%,0%,0%);fill-opacity:0.215686;stroke:none;"/>
  </g>
</mask>
<clipPath id="clip1">
  <rect x="0" y="0" width="25" height="25"/>
</clipPath>
<g id="surface5" clip-path="url(#clip1)">
<path style=" stroke:none;fill-rule:nonzero;fill:rgb(34.509804%,45.098039%,14.117647%);fill-opacity:1;" d="M 19.109375 1.039062 C 19.582031 0.855469 19.921875 0.992188 20.128906 1.453125 C 20.015625 1.371094 19.902344 1.289062 19.789062 1.203125 C 19.582031 1.082031 19.355469 1.027344 19.109375 1.039062 Z M 19.109375 1.039062 "/>
</g>
<mask id="mask1">
  <g filter="url(#alpha)">
<rect x="0" y="0" width="25" height="25" style="fill:rgb(0%,0%,0%);fill-opacity:0.360784;stroke:none;"/>
  </g>
</mask>
<clipPath id="clip2">
  <rect x="0" y="0" width="25" height="25"/>
</clipPath>
<g id="surface8" clip-path="url(#clip2)">
<path style=" stroke:none;fill-rule:nonzero;fill:rgb(34.509804%,45.098039%,14.117647%);fill-opacity:1;" d="M 5.296875 1.039062 C 5.238281 1.121094 5.183594 1.203125 5.128906 1.289062 C 5.042969 1.34375 4.957031 1.398438 4.871094 1.453125 C 4.929688 1.230469 5.070312 1.09375 5.296875 1.039062 Z M 5.296875 1.039062 "/>
</g>
<mask id="mask2">
  <g filter="url(#alpha)">
<rect x="0" y="0" width="25" height="25" style="fill:rgb(0%,0%,0%);fill-opacity:0.847059;stroke:none;"/>
  </g>
</mask>
<clipPath id="clip3">
  <rect x="0" y="0" width="25" height="25"/>
</clipPath>
<g id="surface11" clip-path="url(#clip3)">
<path style=" stroke:none;fill-rule:nonzero;fill:rgb(34.509804%,45.098039%,14.117647%);fill-opacity:1;" d="M 5.296875 1.039062 C 5.511719 1.011719 5.710938 1.039062 5.890625 1.121094 C 5.613281 1.097656 5.355469 1.152344 5.128906 1.289062 C 5.183594 1.203125 5.238281 1.121094 5.296875 1.039062 Z M 5.296875 1.039062 "/>
</g>
<mask id="mask3">
  <g filter="url(#alpha)">
<rect x="0" y="0" width="25" height="25" style="fill:rgb(0%,0%,0%);fill-opacity:0.811765;stroke:none;"/>
  </g>
</mask>
<clipPath id="clip4">
  <rect x="0" y="0" width="25" height="25"/>
</clipPath>
<g id="surface14" clip-path="url(#clip4)">
<path style=" stroke:none;fill-rule:nonzero;fill:rgb(34.509804%,45.098039%,14.117647%);fill-opacity:1;" d="M 5.128906 1.289062 C 5.128906 1.390625 5.089844 1.476562 5 1.535156 C 4.945312 2.699219 4.945312 3.863281 5 5.023438 C 5.089844 5.085938 5.128906 5.167969 5.128906 5.273438 C 5.070312 5.246094 5.015625 5.21875 4.957031 5.191406 C 4.894531 5.15625 4.855469 5.101562 4.832031 5.023438 C 4.761719 3.820312 4.773438 2.628906 4.871094 1.453125 C 4.957031 1.398438 5.042969 1.34375 5.128906 1.289062 Z M 5.128906 1.289062 "/>
</g>
<mask id="mask4">
  <g filter="url(#alpha)">
<rect x="0" y="0" width="25" height="25" style="fill:rgb(0%,0%,0%);fill-opacity:0.14902;stroke:none;"/>
  </g>
</mask>
<clipPath id="clip5">
  <rect x="0" y="0" width="25" height="25"/>
</clipPath>
<g id="surface17" clip-path="url(#clip5)">
<path style=" stroke:none;fill-rule:nonzero;fill:rgb(34.509804%,45.098039%,14.117647%);fill-opacity:1;" d="M 5.296875 1.039062 C 5.792969 0.84375 6.175781 0.980469 6.441406 1.453125 C 6.511719 2.660156 6.496094 3.847656 6.398438 5.023438 C 6.425781 3.875 6.398438 2.738281 6.3125 1.621094 C 6.292969 1.351562 6.152344 1.183594 5.890625 1.121094 C 5.710938 1.039062 5.511719 1.011719 5.296875 1.039062 Z M 5.296875 1.039062 "/>
</g>
<mask id="mask5">
  <g filter="url(#alpha)">
<rect x="0" y="0" width="25" height="25" style="fill:rgb(0%,0%,0%);fill-opacity:0.113725;stroke:none;"/>
  </g>
</mask>
<clipPath id="clip6">
  <rect x="0" y="0" width="25" height="25"/>
</clipPath>
<g id="surface20" clip-path="url(#clip6)">
<path style=" stroke:none;fill-rule:nonzero;fill:rgb(34.509804%,45.098039%,14.117647%);fill-opacity:1;" d="M 19.109375 1.039062 C 18.871094 1.164062 18.730469 1.355469 18.6875 1.621094 C 18.601562 2.738281 18.574219 3.875 18.601562 5.023438 C 18.503906 3.847656 18.488281 2.660156 18.558594 1.453125 C 18.660156 1.203125 18.84375 1.0625 19.109375 1.039062 Z M 19.109375 1.039062 "/>
</g>
<mask id="mask6">
  <g filter="url(#alpha)">
<rect x="0" y="0" width="25" height="25" style="fill:rgb(0%,0%,0%);fill-opacity:0.796078;stroke:none;"/>
  </g>
</mask>
<clipPath id="clip7">
  <rect x="0" y="0" width="25" height="25"/>
</clipPath>
<g id="surface23" clip-path="url(#clip7)">
<path style=" stroke:none;fill-rule:nonzero;fill:rgb(34.509804%,45.098039%,14.117647%);fill-opacity:1;" d="M 19.789062 1.203125 C 19.902344 1.289062 20.015625 1.371094 20.128906 1.453125 C 20.238281 2.652344 20.238281 3.84375 20.128906 5.023438 C 20.097656 5.023438 20.070312 5.023438 20.042969 5.023438 C 20.054688 3.863281 20.042969 2.699219 20 1.535156 C 19.875 1.457031 19.804688 1.34375 19.789062 1.203125 Z M 19.789062 1.203125 "/>
</g>
<mask id="mask7">
  <g filter="url(#alpha)">
<rect x="0" y="0" width="25" height="25" style="fill:rgb(0%,0%,0%);fill-opacity:0.807843;stroke:none;"/>
  </g>
</mask>
<clipPath id="clip8">
  <rect x="0" y="0" width="25" height="25"/>
</clipPath>
<g id="surface26" clip-path="url(#clip8)">
<path style=" stroke:none;fill-rule:nonzero;fill:rgb(34.509804%,45.098039%,14.117647%);fill-opacity:1;" d="M 6.3125 1.621094 C 6.398438 2.738281 6.425781 3.875 6.398438 5.023438 C 6.34375 5.050781 6.285156 5.082031 6.230469 5.109375 C 6.3125 3.949219 6.339844 2.785156 6.3125 1.621094 Z M 6.3125 1.621094 "/>
</g>
<mask id="mask8">
  <g filter="url(#alpha)">
<rect x="0" y="0" width="25" height="25" style="fill:rgb(0%,0%,0%);fill-opacity:0.768627;stroke:none;"/>
  </g>
</mask>
<clipPath id="clip9">
  <rect x="0" y="0" width="25" height="25"/>
</clipPath>
<g id="surface29" clip-path="url(#clip9)">
<path style=" stroke:none;fill-rule:nonzero;fill:rgb(34.509804%,45.098039%,14.117647%);fill-opacity:1;" d="M 18.6875 1.621094 C 18.664062 2.785156 18.691406 3.949219 18.769531 5.109375 C 18.714844 5.082031 18.660156 5.050781 18.601562 5.023438 C 18.574219 3.875 18.601562 2.738281 18.6875 1.621094 Z M 18.6875 1.621094 "/>
</g>
<mask id="mask9">
  <g filter="url(#alpha)">
<rect x="0" y="0" width="25" height="25" style="fill:rgb(0%,0%,0%);fill-opacity:0.823529;stroke:none;"/>
  </g>
</mask>
<clipPath id="clip10">
  <rect x="0" y="0" width="25" height="25"/>
</clipPath>
<g id="surface32" clip-path="url(#clip10)">
<path style=" stroke:none;fill-rule:nonzero;fill:rgb(34.509804%,45.098039%,14.117647%);fill-opacity:1;" d="M 4.195312 5.023438 C 4.195312 5.136719 4.195312 5.246094 4.195312 5.355469 C 4.128906 5.292969 4.085938 5.210938 4.066406 5.109375 C 4.027344 4.527344 4.011719 3.945312 4.027344 3.363281 C 3.066406 3.363281 2.105469 3.363281 1.144531 3.363281 C 1.144531 10.035156 1.144531 16.707031 1.144531 23.378906 C 8.714844 23.378906 16.285156 23.378906 23.855469 23.378906 C 23.855469 16.707031 23.855469 10.035156 23.855469 3.363281 C 22.894531 3.363281 21.933594 3.363281 20.972656 3.363281 C 21.003906 3.988281 20.972656 4.597656 20.890625 5.191406 C 20.890625 4.554688 20.890625 3.917969 20.890625 3.28125 C 21.382812 3.226562 21.890625 3.199219 22.414062 3.199219 C 22.957031 3.199219 23.480469 3.253906 23.984375 3.363281 C 24.054688 10.082031 24.039062 16.796875 23.941406 23.503906 C 16.3125 23.558594 8.6875 23.558594 1.058594 23.503906 C 0.960938 16.769531 0.945312 10.027344 1.015625 3.28125 C 2.042969 3.183594 3.074219 3.171875 4.109375 3.238281 C 4.191406 3.828125 4.222656 4.421875 4.195312 5.023438 Z M 2.667969 7.101562 C 9.222656 7.101562 15.777344 7.101562 22.332031 7.101562 C 22.332031 12.03125 22.332031 16.957031 22.332031 21.886719 C 15.777344 21.886719 9.222656 21.886719 2.667969 21.886719 C 2.667969 16.957031 2.667969 12.03125 2.667969 7.101562 Z M 13.007812 11.503906 C 13.0625 11.492188 13.101562 11.464844 13.136719 11.421875 C 13.148438 12.210938 13.191406 12.984375 13.261719 13.746094 C 14.632812 13.816406 16.015625 13.855469 17.414062 13.871094 C 17.554688 13.921875 17.695312 13.960938 17.839844 13.996094 C 18.09375 14.234375 18.308594 14.511719 18.472656 14.824219 C 18.488281 16.472656 18.53125 18.105469 18.601562 19.726562 C 19.320312 19.808594 20.054688 19.835938 20.804688 19.808594 C 20.828125 20 20.796875 20.179688 20.71875 20.347656 C 15.238281 20.402344 9.761719 20.402344 4.28125 20.347656 C 4.203125 20.179688 4.171875 20 4.195312 19.808594 C 4.945312 19.835938 5.679688 19.808594 6.398438 19.726562 C 6.46875 18.132812 6.511719 16.527344 6.527344 14.910156 C 6.582031 14.730469 6.652344 14.566406 6.738281 14.410156 C 6.894531 14.164062 7.121094 14 7.414062 13.910156 C 8.867188 13.859375 10.308594 13.804688 11.738281 13.746094 C 11.808594 12.984375 11.851562 12.210938 11.863281 11.421875 C 11.90625 11.460938 11.949219 11.503906 11.992188 11.542969 C 12.347656 11.613281 12.683594 11.597656 13.007812 11.503906 Z M 13.09375 9.59375 C 13.230469 10.601562 12.835938 10.875 11.90625 10.421875 C 11.851562 10.230469 11.835938 10.039062 11.863281 9.84375 C 11.992188 9.464844 12.175781 9.121094 12.414062 8.804688 C 12.496094 8.753906 12.566406 8.765625 12.628906 8.84375 C 12.769531 9.109375 12.925781 9.359375 13.09375 9.59375 Z M 13.09375 9.59375 "/>
</g>
<mask id="mask10">
  <g filter="url(#alpha)">
<rect x="0" y="0" width="25" height="25" style="fill:rgb(0%,0%,0%);fill-opacity:0.494118;stroke:none;"/>
  </g>
</mask>
<clipPath id="clip11">
  <rect x="0" y="0" width="25" height="25"/>
</clipPath>
<g id="surface35" clip-path="url(#clip11)">
<path style=" stroke:none;fill-rule:nonzero;fill:rgb(34.509804%,45.098039%,14.117647%);fill-opacity:1;" d="M 20.890625 3.28125 C 20.890625 3.917969 20.890625 4.554688 20.890625 5.191406 C 20.808594 5.4375 20.667969 5.632812 20.464844 5.773438 C 20.609375 5.546875 20.707031 5.296875 20.761719 5.023438 C 20.777344 4.429688 20.820312 3.847656 20.890625 3.28125 Z M 20.890625 3.28125 "/>
</g>
<mask id="mask11">
  <g filter="url(#alpha)">
<rect x="0" y="0" width="25" height="25" style="fill:rgb(0%,0%,0%);fill-opacity:0.12549;stroke:none;"/>
  </g>
</mask>
<clipPath id="clip12">
  <rect x="0" y="0" width="25" height="25"/>
</clipPath>
<g id="surface38" clip-path="url(#clip12)">
<path style=" stroke:none;fill-rule:nonzero;fill:rgb(34.509804%,45.098039%,14.117647%);fill-opacity:1;" d="M 17.839844 3.28125 C 17.902344 3.960938 17.960938 4.652344 18.007812 5.355469 C 17.980469 5.355469 17.953125 5.355469 17.921875 5.355469 C 17.84375 4.667969 17.816406 3.976562 17.839844 3.28125 Z M 17.839844 3.28125 "/>
</g>
<mask id="mask12">
  <g filter="url(#alpha)">
<rect x="0" y="0" width="25" height="25" style="fill:rgb(0%,0%,0%);fill-opacity:0.109804;stroke:none;"/>
  </g>
</mask>
<clipPath id="clip13">
  <rect x="0" y="0" width="25" height="25"/>
</clipPath>
<g id="surface41" clip-path="url(#clip13)">
<path style=" stroke:none;fill-rule:nonzero;fill:rgb(34.509804%,45.098039%,14.117647%);fill-opacity:1;" d="M 7.160156 3.28125 C 7.183594 3.976562 7.15625 4.667969 7.078125 5.355469 C 7.046875 5.441406 6.992188 5.496094 6.90625 5.523438 C 7.03125 4.769531 7.117188 4.023438 7.160156 3.28125 Z M 7.160156 3.28125 "/>
</g>
<mask id="mask13">
  <g filter="url(#alpha)">
<rect x="0" y="0" width="25" height="25" style="fill:rgb(0%,0%,0%);fill-opacity:0.145098;stroke:none;"/>
  </g>
</mask>
<clipPath id="clip14">
  <rect x="0" y="0" width="25" height="25"/>
</clipPath>
<g id="surface44" clip-path="url(#clip14)">
<path style=" stroke:none;fill-rule:nonzero;fill:rgb(34.509804%,45.098039%,14.117647%);fill-opacity:1;" d="M 2.585938 7.019531 C 9.195312 7.019531 15.804688 7.019531 22.414062 7.019531 C 22.414062 12 22.414062 16.984375 22.414062 21.96875 C 15.804688 21.96875 9.195312 21.96875 2.585938 21.96875 C 2.585938 16.984375 2.585938 12 2.585938 7.019531 Z M 2.667969 7.101562 C 2.667969 12.03125 2.667969 16.957031 2.667969 21.886719 C 9.222656 21.886719 15.777344 21.886719 22.332031 21.886719 C 22.332031 16.957031 22.332031 12.03125 22.332031 7.101562 C 15.777344 7.101562 9.222656 7.101562 2.667969 7.101562 Z M 13.007812 11.503906 C 13.0625 11.492188 13.101562 11.464844 13.136719 11.421875 C 13.148438 12.210938 13.191406 12.984375 13.261719 13.746094 C 14.632812 13.816406 16.015625 13.855469 17.414062 13.871094 C 17.554688 13.921875 17.695312 13.960938 17.839844 13.996094 C 18.09375 14.234375 18.308594 14.511719 18.472656 14.824219 C 18.488281 16.472656 18.53125 18.105469 18.601562 19.726562 C 19.320312 19.808594 20.054688 19.835938 20.804688 19.808594 C 20.828125 20 20.796875 20.179688 20.71875 20.347656 C 15.238281 20.402344 9.761719 20.402344 4.28125 20.347656 C 4.203125 20.179688 4.171875 20 4.195312 19.808594 C 4.945312 19.835938 5.679688 19.808594 6.398438 19.726562 C 6.46875 18.132812 6.511719 16.527344 6.527344 14.910156 C 6.582031 14.730469 6.652344 14.566406 6.738281 14.410156 C 6.894531 14.164062 7.121094 14 7.414062 13.910156 C 8.867188 13.859375 10.308594 13.804688 11.738281 13.746094 C 11.808594 12.984375 11.851562 12.210938 11.863281 11.421875 C 11.90625 11.460938 11.949219 11.503906 11.992188 11.542969 C 12.347656 11.613281 12.683594 11.597656 13.007812 11.503906 Z M 13.09375 9.59375 C 13.230469 10.601562 12.835938 10.875 11.90625 10.421875 C 11.851562 10.230469 11.835938 10.039062 11.863281 9.84375 C 11.992188 9.464844 12.175781 9.121094 12.414062 8.804688 C 12.496094 8.753906 12.566406 8.765625 12.628906 8.84375 C 12.769531 9.109375 12.925781 9.359375 13.09375 9.59375 Z M 13.09375 9.59375 "/>
</g>
<mask id="mask14">
  <g filter="url(#alpha)">
<rect x="0" y="0" width="25" height="25" style="fill:rgb(0%,0%,0%);fill-opacity:0.819608;stroke:none;"/>
  </g>
</mask>
<clipPath id="clip15">
  <rect x="0" y="0" width="25" height="25"/>
</clipPath>
<g id="surface47" clip-path="url(#clip15)">
<path style=" stroke:none;fill-rule:nonzero;fill:rgb(34.509804%,45.098039%,14.117647%);fill-opacity:1;" d="M 3.347656 7.683594 C 9.449219 7.667969 15.550781 7.683594 21.652344 7.722656 C 21.75 12.21875 21.765625 16.714844 21.695312 21.222656 C 15.585938 21.316406 9.46875 21.332031 3.347656 21.261719 C 3.234375 16.734375 3.234375 12.210938 3.347656 7.683594 Z M 13.007812 11.503906 C 13.0625 11.492188 13.101562 11.464844 13.136719 11.421875 C 13.148438 12.210938 13.191406 12.984375 13.261719 13.746094 C 14.632812 13.816406 16.015625 13.855469 17.414062 13.871094 C 17.554688 13.921875 17.695312 13.960938 17.839844 13.996094 C 18.09375 14.234375 18.308594 14.511719 18.472656 14.824219 C 18.488281 16.472656 18.53125 18.105469 18.601562 19.726562 C 19.320312 19.808594 20.054688 19.835938 20.804688 19.808594 C 20.828125 20 20.796875 20.179688 20.71875 20.347656 C 15.238281 20.402344 9.761719 20.402344 4.28125 20.347656 C 4.203125 20.179688 4.171875 20 4.195312 19.808594 C 4.945312 19.835938 5.679688 19.808594 6.398438 19.726562 C 6.46875 18.132812 6.511719 16.527344 6.527344 14.910156 C 6.582031 14.730469 6.652344 14.566406 6.738281 14.410156 C 6.894531 14.164062 7.121094 14 7.414062 13.910156 C 8.867188 13.859375 10.308594 13.804688 11.738281 13.746094 C 11.808594 12.984375 11.851562 12.210938 11.863281 11.421875 C 11.90625 11.460938 11.949219 11.503906 11.992188 11.542969 C 12.347656 11.613281 12.683594 11.597656 13.007812 11.503906 Z M 13.09375 9.59375 C 13.230469 10.601562 12.835938 10.875 11.90625 10.421875 C 11.851562 10.230469 11.835938 10.039062 11.863281 9.84375 C 11.992188 9.464844 12.175781 9.121094 12.414062 8.804688 C 12.496094 8.753906 12.566406 8.765625 12.628906 8.84375 C 12.769531 9.109375 12.925781 9.359375 13.09375 9.59375 Z M 13.09375 9.59375 "/>
</g>
<mask id="mask15">
  <g filter="url(#alpha)">
<rect x="0" y="0" width="25" height="25" style="fill:rgb(0%,0%,0%);fill-opacity:0.819608;stroke:none;"/>
  </g>
</mask>
<clipPath id="clip16">
  <rect x="0" y="0" width="25" height="25"/>
</clipPath>
<g id="surface50" clip-path="url(#clip16)">
<path style=" stroke:none;fill-rule:nonzero;fill:rgb(34.509804%,45.098039%,14.117647%);fill-opacity:1;" d="M 4.109375 19.726562 C 4.109375 19.976562 4.109375 20.222656 4.109375 20.472656 C 9.703125 20.472656 15.296875 20.472656 20.890625 20.472656 C 20.890625 20.222656 20.890625 19.976562 20.890625 19.726562 C 20.929688 20.035156 21.015625 20.339844 21.144531 20.640625 C 21.074219 20.667969 21.003906 20.695312 20.933594 20.722656 C 18.128906 20.613281 15.316406 20.558594 12.5 20.554688 C 9.683594 20.558594 6.871094 20.613281 4.066406 20.722656 C 3.996094 20.695312 3.925781 20.667969 3.855469 20.640625 C 3.984375 20.339844 4.070312 20.035156 4.109375 19.726562 Z M 4.109375 19.726562 "/>
</g>
<mask id="mask16">
  <g filter="url(#alpha)">
<rect x="0" y="0" width="25" height="25" style="fill:rgb(0%,0%,0%);fill-opacity:0.160784;stroke:none;"/>
  </g>
</mask>
<clipPath id="clip17">
  <rect x="0" y="0" width="25" height="25"/>
</clipPath>
<g id="surface53" clip-path="url(#clip17)">
<path style=" stroke:none;fill-rule:nonzero;fill:rgb(34.509804%,45.098039%,14.117647%);fill-opacity:1;" d="M 4.109375 19.726562 C 4.871094 19.726562 5.636719 19.726562 6.398438 19.726562 C 5.679688 19.808594 4.945312 19.835938 4.195312 19.808594 C 4.171875 20 4.203125 20.179688 4.28125 20.347656 C 9.761719 20.402344 15.238281 20.402344 20.71875 20.347656 C 20.796875 20.179688 20.828125 20 20.804688 19.808594 C 20.054688 19.835938 19.320312 19.808594 18.601562 19.726562 C 19.363281 19.726562 20.128906 19.726562 20.890625 19.726562 C 20.890625 19.976562 20.890625 20.222656 20.890625 20.472656 C 15.296875 20.472656 9.703125 20.472656 4.109375 20.472656 C 4.109375 20.222656 4.109375 19.976562 4.109375 19.726562 Z M 4.109375 19.726562 "/>
</g>
<mask id="mask17">
  <g filter="url(#alpha)">
<rect x="0" y="0" width="25" height="25" style="fill:rgb(0%,0%,0%);fill-opacity:0.803922;stroke:none;"/>
  </g>
</mask>
<clipPath id="clip18">
  <rect x="0" y="0" width="25" height="25"/>
</clipPath>
<g id="surface56" clip-path="url(#clip18)">
<path style=" stroke:none;fill-rule:nonzero;fill:rgb(34.509804%,45.098039%,14.117647%);fill-opacity:1;" d="M 6.484375 14.578125 C 6.398438 16.289062 6.371094 18.003906 6.398438 19.726562 C 5.636719 19.726562 4.871094 19.726562 4.109375 19.726562 C 4.828125 19.644531 5.5625 19.617188 6.3125 19.644531 C 6.257812 17.925781 6.316406 16.234375 6.484375 14.578125 Z M 6.484375 14.578125 "/>
</g>
<mask id="mask18">
  <g filter="url(#alpha)">
<rect x="0" y="0" width="25" height="25" style="fill:rgb(0%,0%,0%);fill-opacity:0.141176;stroke:none;"/>
  </g>
</mask>
<clipPath id="clip19">
  <rect x="0" y="0" width="25" height="25"/>
</clipPath>
<g id="surface59" clip-path="url(#clip19)">
<path style=" stroke:none;fill-rule:nonzero;fill:rgb(34.509804%,45.098039%,14.117647%);fill-opacity:1;" d="M 6.738281 14.410156 C 6.652344 14.566406 6.582031 14.730469 6.527344 14.910156 C 6.511719 16.527344 6.46875 18.132812 6.398438 19.726562 C 6.371094 18.003906 6.398438 16.289062 6.484375 14.578125 C 6.566406 14.519531 6.652344 14.464844 6.738281 14.410156 Z M 6.738281 14.410156 "/>
</g>
<mask id="mask19">
  <g filter="url(#alpha)">
<rect x="0" y="0" width="25" height="25" style="fill:rgb(0%,0%,0%);fill-opacity:0.807843;stroke:none;"/>
  </g>
</mask>
<clipPath id="clip20">
  <rect x="0" y="0" width="25" height="25"/>
</clipPath>
<g id="surface62" clip-path="url(#clip20)">
<path style=" stroke:none;fill-rule:nonzero;fill:rgb(34.509804%,45.098039%,14.117647%);fill-opacity:1;" d="M 18.601562 14.742188 C 18.6875 16.363281 18.714844 17.996094 18.6875 19.644531 C 19.4375 19.617188 20.171875 19.644531 20.890625 19.726562 C 20.128906 19.726562 19.363281 19.726562 18.601562 19.726562 C 18.601562 18.066406 18.601562 16.402344 18.601562 14.742188 Z M 18.601562 14.742188 "/>
</g>
<mask id="mask20">
  <g filter="url(#alpha)">
<rect x="0" y="0" width="25" height="25" style="fill:rgb(0%,0%,0%);fill-opacity:0.423529;stroke:none;"/>
  </g>
</mask>
<clipPath id="clip21">
  <rect x="0" y="0" width="25" height="25"/>
</clipPath>
<g id="surface65" clip-path="url(#clip21)">
<path style=" stroke:none;fill-rule:nonzero;fill:rgb(34.509804%,45.098039%,14.117647%);fill-opacity:1;" d="M 17.839844 13.996094 C 17.960938 13.988281 18.074219 14.015625 18.179688 14.078125 C 18.328125 14.304688 18.46875 14.527344 18.601562 14.742188 C 18.601562 16.402344 18.601562 18.066406 18.601562 19.726562 C 18.53125 18.105469 18.488281 16.472656 18.472656 14.824219 C 18.308594 14.511719 18.09375 14.234375 17.839844 13.996094 Z M 17.839844 13.996094 "/>
</g>
<mask id="mask21">
  <g filter="url(#alpha)">
<rect x="0" y="0" width="25" height="25" style="fill:rgb(0%,0%,0%);fill-opacity:0.239216;stroke:none;"/>
  </g>
</mask>
<clipPath id="clip22">
  <rect x="0" y="0" width="25" height="25"/>
</clipPath>
<g id="surface68" clip-path="url(#clip22)">
<path style=" stroke:none;fill-rule:nonzero;fill:rgb(34.509804%,45.098039%,14.117647%);fill-opacity:1;" d="M 7.414062 13.828125 C 7.414062 13.855469 7.414062 13.882812 7.414062 13.910156 C 7.121094 14 6.894531 14.164062 6.738281 14.410156 C 6.652344 14.464844 6.566406 14.519531 6.484375 14.578125 C 6.671875 14.171875 6.980469 13.921875 7.414062 13.828125 Z M 7.414062 13.828125 "/>
</g>
<mask id="mask22">
  <g filter="url(#alpha)">
<rect x="0" y="0" width="25" height="25" style="fill:rgb(0%,0%,0%);fill-opacity:0.129412;stroke:none;"/>
  </g>
</mask>
<clipPath id="clip23">
  <rect x="0" y="0" width="25" height="25"/>
</clipPath>
<g id="surface71" clip-path="url(#clip23)">
<path style=" stroke:none;fill-rule:nonzero;fill:rgb(34.509804%,45.098039%,14.117647%);fill-opacity:1;" d="M 13.261719 13.746094 C 14.648438 13.746094 16.03125 13.746094 17.414062 13.746094 C 17.589844 13.785156 17.730469 13.867188 17.839844 13.996094 C 17.695312 13.960938 17.554688 13.921875 17.414062 13.871094 C 16.015625 13.855469 14.632812 13.816406 13.261719 13.746094 Z M 13.261719 13.746094 "/>
</g>
<mask id="mask23">
  <g filter="url(#alpha)">
<rect x="0" y="0" width="25" height="25" style="fill:rgb(0%,0%,0%);fill-opacity:0.129412;stroke:none;"/>
  </g>
</mask>
<clipPath id="clip24">
  <rect x="0" y="0" width="25" height="25"/>
</clipPath>
<g id="surface74" clip-path="url(#clip24)">
<path style=" stroke:none;fill-rule:nonzero;fill:rgb(34.509804%,45.098039%,14.117647%);fill-opacity:1;" d="M 7.414062 13.746094 C 8.855469 13.746094 10.296875 13.746094 11.738281 13.746094 C 10.308594 13.804688 8.867188 13.859375 7.414062 13.910156 C 7.414062 13.882812 7.414062 13.855469 7.414062 13.828125 C 7.414062 13.800781 7.414062 13.773438 7.414062 13.746094 Z M 7.414062 13.746094 "/>
</g>
<mask id="mask24">
  <g filter="url(#alpha)">
<rect x="0" y="0" width="25" height="25" style="fill:rgb(0%,0%,0%);fill-opacity:0.792157;stroke:none;"/>
  </g>
</mask>
<clipPath id="clip25">
  <rect x="0" y="0" width="25" height="25"/>
</clipPath>
<g id="surface77" clip-path="url(#clip25)">
<path style=" stroke:none;fill-rule:nonzero;fill:rgb(34.509804%,45.098039%,14.117647%);fill-opacity:1;" d="M 13.261719 11.335938 C 13.347656 12.097656 13.375 12.871094 13.347656 13.664062 C 14.71875 13.636719 16.074219 13.664062 17.414062 13.746094 C 16.03125 13.746094 14.648438 13.746094 13.261719 13.746094 C 13.261719 12.941406 13.261719 12.140625 13.261719 11.335938 Z M 13.261719 11.335938 "/>
</g>
<mask id="mask25">
  <g filter="url(#alpha)">
<rect x="0" y="0" width="25" height="25" style="fill:rgb(0%,0%,0%);fill-opacity:0.784314;stroke:none;"/>
  </g>
</mask>
<clipPath id="clip26">
  <rect x="0" y="0" width="25" height="25"/>
</clipPath>
<g id="surface80" clip-path="url(#clip26)">
<path style=" stroke:none;fill-rule:nonzero;fill:rgb(34.509804%,45.098039%,14.117647%);fill-opacity:1;" d="M 11.738281 11.335938 C 11.738281 12.140625 11.738281 12.941406 11.738281 13.746094 C 10.296875 13.746094 8.855469 13.746094 7.414062 13.746094 C 8.8125 13.664062 10.226562 13.636719 11.652344 13.664062 C 11.625 12.871094 11.652344 12.097656 11.738281 11.335938 Z M 11.738281 11.335938 "/>
</g>
<mask id="mask26">
  <g filter="url(#alpha)">
<rect x="0" y="0" width="25" height="25" style="fill:rgb(0%,0%,0%);fill-opacity:0.145098;stroke:none;"/>
  </g>
</mask>
<clipPath id="clip27">
  <rect x="0" y="0" width="25" height="25"/>
</clipPath>
<g id="surface83" clip-path="url(#clip27)">
<path style=" stroke:none;fill-rule:nonzero;fill:rgb(34.509804%,45.098039%,14.117647%);fill-opacity:1;" d="M 11.738281 11.335938 C 12.027344 11.46875 12.335938 11.523438 12.667969 11.503906 C 12.78125 11.503906 12.894531 11.503906 13.007812 11.503906 C 12.683594 11.597656 12.347656 11.613281 11.992188 11.542969 C 11.949219 11.503906 11.90625 11.460938 11.863281 11.421875 C 11.851562 12.210938 11.808594 12.984375 11.738281 13.746094 C 11.738281 12.941406 11.738281 12.140625 11.738281 11.335938 Z M 11.738281 11.335938 "/>
</g>
<mask id="mask27">
  <g filter="url(#alpha)">
<rect x="0" y="0" width="25" height="25" style="fill:rgb(0%,0%,0%);fill-opacity:0.572549;stroke:none;"/>
  </g>
</mask>
<clipPath id="clip28">
  <rect x="0" y="0" width="25" height="25"/>
</clipPath>
<g id="surface86" clip-path="url(#clip28)">
<path style=" stroke:none;fill-rule:nonzero;fill:rgb(34.509804%,45.098039%,14.117647%);fill-opacity:1;" d="M 13.261719 11.335938 C 13.261719 12.140625 13.261719 12.941406 13.261719 13.746094 C 13.191406 12.984375 13.148438 12.210938 13.136719 11.421875 C 13.101562 11.464844 13.0625 11.492188 13.007812 11.503906 C 12.894531 11.503906 12.78125 11.503906 12.667969 11.503906 C 12.667969 11.476562 12.667969 11.449219 12.667969 11.421875 C 12.871094 11.40625 13.066406 11.378906 13.261719 11.335938 Z M 13.261719 11.335938 "/>
</g>
<mask id="mask28">
  <g filter="url(#alpha)">
<rect x="0" y="0" width="25" height="25" style="fill:rgb(0%,0%,0%);fill-opacity:0.133333;stroke:none;"/>
  </g>
</mask>
<clipPath id="clip29">
  <rect x="0" y="0" width="25" height="25"/>
</clipPath>
<g id="surface89" clip-path="url(#clip29)">
<path style=" stroke:none;fill-rule:nonzero;fill:rgb(34.509804%,45.098039%,14.117647%);fill-opacity:1;" d="M 17.839844 17.152344 C 17.921875 18.023438 17.953125 18.90625 17.921875 19.808594 C 14.320312 19.835938 10.734375 19.808594 7.160156 19.726562 C 10.71875 19.726562 14.28125 19.726562 17.839844 19.726562 C 17.839844 18.867188 17.839844 18.007812 17.839844 17.152344 Z M 17.839844 17.152344 "/>
</g>
<mask id="mask29">
  <g filter="url(#alpha)">
<rect x="0" y="0" width="25" height="25" style="fill:rgb(0%,0%,0%);fill-opacity:0.835294;stroke:none;"/>
  </g>
</mask>
<clipPath id="clip30">
  <rect x="0" y="0" width="25" height="25"/>
</clipPath>
<g id="surface92" clip-path="url(#clip30)">
<path style=" stroke:none;fill-rule:nonzero;fill:rgb(34.509804%,45.098039%,14.117647%);fill-opacity:1;" d="M 7.246094 16.570312 C 7.246094 17.59375 7.246094 18.617188 7.246094 19.644531 C 10.75 19.644531 14.25 19.644531 17.753906 19.644531 C 17.753906 18.8125 17.753906 17.980469 17.753906 17.152344 C 17.78125 17.152344 17.8125 17.152344 17.839844 17.152344 C 17.839844 18.007812 17.839844 18.867188 17.839844 19.726562 C 14.28125 19.726562 10.71875 19.726562 7.160156 19.726562 C 7.132812 18.660156 7.160156 17.605469 7.246094 16.570312 Z M 7.246094 16.570312 "/>
</g>
<mask id="mask30">
  <g filter="url(#alpha)">
<rect x="0" y="0" width="25" height="25" style="fill:rgb(0%,0%,0%);fill-opacity:0.145098;stroke:none;"/>
  </g>
</mask>
<clipPath id="clip31">
  <rect x="0" y="0" width="25" height="25"/>
</clipPath>
<g id="surface95" clip-path="url(#clip31)">
<path style=" stroke:none;fill-rule:nonzero;fill:rgb(34.509804%,45.098039%,14.117647%);fill-opacity:1;" d="M 17.078125 16.734375 C 17.398438 16.777344 17.652344 16.917969 17.839844 17.152344 C 17.8125 17.152344 17.78125 17.152344 17.753906 17.152344 C 17.464844 17.09375 17.238281 16.953125 17.078125 16.734375 Z M 17.078125 16.734375 "/>
</g>
<mask id="mask31">
  <g filter="url(#alpha)">
<rect x="0" y="0" width="25" height="25" style="fill:rgb(0%,0%,0%);fill-opacity:0.262745;stroke:none;"/>
  </g>
</mask>
<clipPath id="clip32">
  <rect x="0" y="0" width="25" height="25"/>
</clipPath>
<g id="surface98" clip-path="url(#clip32)">
<path style=" stroke:none;fill-rule:nonzero;fill:rgb(34.509804%,45.098039%,14.117647%);fill-opacity:1;" d="M 9.957031 16.488281 C 9.699219 16.78125 9.359375 16.945312 8.941406 16.984375 C 9.253906 16.777344 9.589844 16.609375 9.957031 16.488281 Z M 9.957031 16.488281 "/>
</g>
<mask id="mask32">
  <g filter="url(#alpha)">
<rect x="0" y="0" width="25" height="25" style="fill:rgb(0%,0%,0%);fill-opacity:0.466667;stroke:none;"/>
  </g>
</mask>
<clipPath id="clip33">
  <rect x="0" y="0" width="25" height="25"/>
</clipPath>
<g id="surface101" clip-path="url(#clip33)">
<path style=" stroke:none;fill-rule:nonzero;fill:rgb(34.509804%,45.098039%,14.117647%);fill-opacity:1;" d="M 14.027344 16.734375 C 14.300781 16.773438 14.539062 16.886719 14.746094 17.066406 C 14.832031 17 14.929688 16.972656 15.042969 16.984375 C 15.003906 17.085938 14.917969 17.140625 14.789062 17.152344 C 14.703125 17.136719 14.617188 17.125 14.535156 17.109375 C 14.351562 16.984375 14.179688 16.859375 14.027344 16.734375 Z M 14.027344 16.734375 "/>
</g>
<mask id="mask33">
  <g filter="url(#alpha)">
<rect x="0" y="0" width="25" height="25" style="fill:rgb(0%,0%,0%);fill-opacity:0.439216;stroke:none;"/>
  </g>
</mask>
<clipPath id="clip34">
  <rect x="0" y="0" width="25" height="25"/>
</clipPath>
<g id="surface104" clip-path="url(#clip34)">
<path style=" stroke:none;fill-rule:nonzero;fill:rgb(34.509804%,45.098039%,14.117647%);fill-opacity:1;" d="M 10.972656 16.734375 C 11.257812 16.78125 11.511719 16.894531 11.738281 17.066406 C 11.816406 17.015625 11.898438 16.988281 11.992188 16.984375 C 11.953125 17.085938 11.867188 17.140625 11.738281 17.152344 C 11.652344 17.136719 11.566406 17.125 11.484375 17.109375 C 11.261719 17.035156 11.09375 16.910156 10.972656 16.734375 Z M 10.972656 16.734375 "/>
</g>
<mask id="mask34">
  <g filter="url(#alpha)">
<rect x="0" y="0" width="25" height="25" style="fill:rgb(0%,0%,0%);fill-opacity:0.431373;stroke:none;"/>
  </g>
</mask>
<clipPath id="clip35">
  <rect x="0" y="0" width="25" height="25"/>
</clipPath>
<g id="surface107" clip-path="url(#clip35)">
<path style=" stroke:none;fill-rule:nonzero;fill:rgb(34.509804%,45.098039%,14.117647%);fill-opacity:1;" d="M 7.921875 16.734375 C 8.179688 16.8125 8.417969 16.921875 8.644531 17.066406 C 8.730469 17 8.828125 16.972656 8.941406 16.984375 C 8.902344 17.085938 8.816406 17.140625 8.6875 17.152344 C 8.601562 17.136719 8.515625 17.125 8.433594 17.109375 C 8.210938 17.035156 8.042969 16.910156 7.921875 16.734375 Z M 7.921875 16.734375 "/>
</g>
<mask id="mask35">
  <g filter="url(#alpha)">
<rect x="0" y="0" width="25" height="25" style="fill:rgb(0%,0%,0%);fill-opacity:0.239216;stroke:none;"/>
  </g>
</mask>
<clipPath id="clip36">
  <rect x="0" y="0" width="25" height="25"/>
</clipPath>
<g id="surface110" clip-path="url(#clip36)">
<path style=" stroke:none;fill-rule:nonzero;fill:rgb(34.509804%,45.098039%,14.117647%);fill-opacity:1;" d="M 16.058594 16.488281 C 15.800781 16.78125 15.460938 16.945312 15.042969 16.984375 C 15.355469 16.777344 15.695312 16.609375 16.058594 16.488281 Z M 16.058594 16.488281 "/>
</g>
<mask id="mask36">
  <g filter="url(#alpha)">
<rect x="0" y="0" width="25" height="25" style="fill:rgb(0%,0%,0%);fill-opacity:0.686275;stroke:none;"/>
  </g>
</mask>
<clipPath id="clip37">
  <rect x="0" y="0" width="25" height="25"/>
</clipPath>
<g id="surface113" clip-path="url(#clip37)">
<path style=" stroke:none;fill-rule:nonzero;fill:rgb(34.509804%,45.098039%,14.117647%);fill-opacity:1;" d="M 13.007812 16.488281 C 12.769531 16.757812 12.460938 16.921875 12.078125 16.984375 C 12.34375 16.757812 12.65625 16.589844 13.007812 16.488281 Z M 13.007812 16.488281 "/>
</g>
<mask id="mask37">
  <g filter="url(#alpha)">
<rect x="0" y="0" width="25" height="25" style="fill:rgb(0%,0%,0%);fill-opacity:0.737255;stroke:none;"/>
  </g>
</mask>
<clipPath id="clip38">
  <rect x="0" y="0" width="25" height="25"/>
</clipPath>
<g id="surface116" clip-path="url(#clip38)">
<path style=" stroke:none;fill-rule:nonzero;fill:rgb(34.509804%,45.098039%,14.117647%);fill-opacity:1;" d="M 7.921875 16.734375 C 7.691406 16.699219 7.46875 16.640625 7.246094 16.570312 C 7.160156 17.605469 7.132812 18.660156 7.160156 19.726562 C 7.0625 18.660156 7.046875 17.582031 7.117188 16.488281 C 7.421875 16.433594 7.691406 16.515625 7.921875 16.734375 Z M 7.921875 16.734375 "/>
</g>
<mask id="mask38">
  <g filter="url(#alpha)">
<rect x="0" y="0" width="25" height="25" style="fill:rgb(0%,0%,0%);fill-opacity:0.392157;stroke:none;"/>
  </g>
</mask>
<clipPath id="clip39">
  <rect x="0" y="0" width="25" height="25"/>
</clipPath>
<g id="surface119" clip-path="url(#clip39)">
<path style=" stroke:none;fill-rule:nonzero;fill:rgb(34.509804%,45.098039%,14.117647%);fill-opacity:1;" d="M 17.078125 16.734375 C 16.75 16.605469 16.410156 16.519531 16.058594 16.488281 C 16.125 16.414062 16.207031 16.355469 16.3125 16.320312 C 16.585938 16.441406 16.839844 16.578125 17.078125 16.734375 Z M 17.078125 16.734375 "/>
</g>
<mask id="mask39">
  <g filter="url(#alpha)">
<rect x="0" y="0" width="25" height="25" style="fill:rgb(0%,0%,0%);fill-opacity:0.368627;stroke:none;"/>
  </g>
</mask>
<clipPath id="clip40">
  <rect x="0" y="0" width="25" height="25"/>
</clipPath>
<g id="surface122" clip-path="url(#clip40)">
<path style=" stroke:none;fill-rule:nonzero;fill:rgb(34.509804%,45.098039%,14.117647%);fill-opacity:1;" d="M 14.027344 16.734375 C 13.699219 16.605469 13.359375 16.519531 13.007812 16.488281 C 13.074219 16.414062 13.15625 16.355469 13.261719 16.320312 C 13.535156 16.441406 13.789062 16.578125 14.027344 16.734375 Z M 14.027344 16.734375 "/>
</g>
<mask id="mask40">
  <g filter="url(#alpha)">
<rect x="0" y="0" width="25" height="25" style="fill:rgb(0%,0%,0%);fill-opacity:0.364706;stroke:none;"/>
  </g>
</mask>
<clipPath id="clip41">
  <rect x="0" y="0" width="25" height="25"/>
</clipPath>
<g id="surface125" clip-path="url(#clip41)">
<path style=" stroke:none;fill-rule:nonzero;fill:rgb(34.509804%,45.098039%,14.117647%);fill-opacity:1;" d="M 10.972656 16.734375 C 10.632812 16.644531 10.292969 16.5625 9.957031 16.488281 C 10.023438 16.414062 10.105469 16.355469 10.210938 16.320312 C 10.484375 16.441406 10.738281 16.578125 10.972656 16.734375 Z M 10.972656 16.734375 "/>
</g>
<mask id="mask41">
  <g filter="url(#alpha)">
<rect x="0" y="0" width="25" height="25" style="fill:rgb(0%,0%,0%);fill-opacity:0.760784;stroke:none;"/>
  </g>
</mask>
<clipPath id="clip42">
  <rect x="0" y="0" width="25" height="25"/>
</clipPath>
<g id="surface128" clip-path="url(#clip42)">
<path style=" stroke:none;fill-rule:nonzero;fill:rgb(34.509804%,45.098039%,14.117647%);fill-opacity:1;" d="M 17.667969 14.910156 C 17.726562 14.9375 17.78125 14.964844 17.839844 14.992188 C 17.9375 15.390625 17.949219 15.808594 17.882812 16.238281 C 17.773438 16.34375 17.671875 16.34375 17.585938 16.238281 C 17.585938 16.210938 17.585938 16.183594 17.585938 16.15625 C 17.695312 16.011719 17.75 15.832031 17.753906 15.613281 C 17.746094 15.375 17.71875 15.140625 17.667969 14.910156 Z M 17.667969 14.910156 "/>
</g>
<mask id="mask42">
  <g filter="url(#alpha)">
<rect x="0" y="0" width="25" height="25" style="fill:rgb(0%,0%,0%);fill-opacity:0.0980392;stroke:none;"/>
  </g>
</mask>
<clipPath id="clip43">
  <rect x="0" y="0" width="25" height="25"/>
</clipPath>
<g id="surface131" clip-path="url(#clip43)">
<path style=" stroke:none;fill-rule:nonzero;fill:rgb(34.509804%,45.098039%,14.117647%);fill-opacity:1;" d="M 16.058594 15.738281 C 15.746094 15.949219 15.410156 16.113281 15.042969 16.238281 C 15.28125 15.898438 15.617188 15.734375 16.058594 15.738281 Z M 16.058594 15.738281 "/>
</g>
<mask id="mask43">
  <g filter="url(#alpha)">
<rect x="0" y="0" width="25" height="25" style="fill:rgb(0%,0%,0%);fill-opacity:0.807843;stroke:none;"/>
  </g>
</mask>
<clipPath id="clip44">
  <rect x="0" y="0" width="25" height="25"/>
</clipPath>
<g id="surface134" clip-path="url(#clip44)">
<path style=" stroke:none;fill-rule:nonzero;fill:rgb(34.509804%,45.098039%,14.117647%);fill-opacity:1;" d="M 7.921875 15.988281 C 8.167969 15.949219 8.339844 16.03125 8.433594 16.238281 C 8.234375 16.195312 8.066406 16.113281 7.921875 15.988281 Z M 7.921875 15.988281 "/>
</g>
<mask id="mask44">
  <g filter="url(#alpha)">
<rect x="0" y="0" width="25" height="25" style="fill:rgb(0%,0%,0%);fill-opacity:0.317647;stroke:none;"/>
  </g>
</mask>
<clipPath id="clip45">
  <rect x="0" y="0" width="25" height="25"/>
</clipPath>
<g id="surface137" clip-path="url(#clip45)">
<path style=" stroke:none;fill-rule:nonzero;fill:rgb(34.509804%,45.098039%,14.117647%);fill-opacity:1;" d="M 7.414062 15.738281 C 7.472656 15.738281 7.527344 15.738281 7.585938 15.738281 C 7.71875 15.792969 7.832031 15.875 7.921875 15.988281 C 7.714844 15.96875 7.546875 15.882812 7.414062 15.738281 Z M 7.414062 15.738281 "/>
</g>
<mask id="mask45">
  <g filter="url(#alpha)">
<rect x="0" y="0" width="25" height="25" style="fill:rgb(0%,0%,0%);fill-opacity:0.482353;stroke:none;"/>
  </g>
</mask>
<clipPath id="clip46">
  <rect x="0" y="0" width="25" height="25"/>
</clipPath>
<g id="surface140" clip-path="url(#clip46)">
<path style=" stroke:none;fill-rule:nonzero;fill:rgb(34.509804%,45.098039%,14.117647%);fill-opacity:1;" d="M 16.566406 15.738281 C 16.949219 15.789062 17.289062 15.925781 17.585938 16.15625 C 17.585938 16.183594 17.585938 16.210938 17.585938 16.238281 C 17.214844 16.113281 16.878906 15.945312 16.566406 15.738281 Z M 16.566406 15.738281 "/>
</g>
<mask id="mask46">
  <g filter="url(#alpha)">
<rect x="0" y="0" width="25" height="25" style="fill:rgb(0%,0%,0%);fill-opacity:0.807843;stroke:none;"/>
  </g>
</mask>
<clipPath id="clip47">
  <rect x="0" y="0" width="25" height="25"/>
</clipPath>
<g id="surface143" clip-path="url(#clip47)">
<path style=" stroke:none;fill-rule:nonzero;fill:rgb(34.509804%,45.098039%,14.117647%);fill-opacity:1;" d="M 7.5 14.578125 C 7.40625 14.667969 7.351562 14.777344 7.332031 14.910156 C 7.242188 15.09375 7.230469 15.289062 7.289062 15.488281 C 7.417969 15.546875 7.515625 15.628906 7.585938 15.738281 C 7.527344 15.738281 7.472656 15.738281 7.414062 15.738281 C 7.160156 15.695312 7.046875 15.542969 7.078125 15.28125 C 7.085938 15.054688 7.15625 14.847656 7.289062 14.660156 C 7.34375 14.597656 7.414062 14.570312 7.5 14.578125 Z M 7.5 14.578125 "/>
</g>
<mask id="mask47">
  <g filter="url(#alpha)">
<rect x="0" y="0" width="25" height="25" style="fill:rgb(0%,0%,0%);fill-opacity:0.0666667;stroke:none;"/>
  </g>
</mask>
<clipPath id="clip48">
  <rect x="0" y="0" width="25" height="25"/>
</clipPath>
<g id="surface146" clip-path="url(#clip48)">
<path style=" stroke:none;fill-rule:nonzero;fill:rgb(34.509804%,45.098039%,14.117647%);fill-opacity:1;" d="M 13.007812 15.738281 C 12.695312 15.949219 12.359375 16.113281 11.992188 16.238281 C 12.230469 15.898438 12.566406 15.734375 13.007812 15.738281 Z M 13.007812 15.738281 "/>
</g>
<mask id="mask48">
  <g filter="url(#alpha)">
<rect x="0" y="0" width="25" height="25" style="fill:rgb(0%,0%,0%);fill-opacity:0.117647;stroke:none;"/>
  </g>
</mask>
<clipPath id="clip49">
  <rect x="0" y="0" width="25" height="25"/>
</clipPath>
<g id="surface149" clip-path="url(#clip49)">
<path style=" stroke:none;fill-rule:nonzero;fill:rgb(34.509804%,45.098039%,14.117647%);fill-opacity:1;" d="M 9.957031 15.738281 C 9.644531 15.949219 9.304688 16.113281 8.941406 16.238281 C 9.179688 15.898438 9.515625 15.734375 9.957031 15.738281 Z M 9.957031 15.738281 "/>
</g>
<mask id="mask49">
  <g filter="url(#alpha)">
<rect x="0" y="0" width="25" height="25" style="fill:rgb(0%,0%,0%);fill-opacity:0.505882;stroke:none;"/>
  </g>
</mask>
<clipPath id="clip50">
  <rect x="0" y="0" width="25" height="25"/>
</clipPath>
<g id="surface152" clip-path="url(#clip50)">
<path style=" stroke:none;fill-rule:nonzero;fill:rgb(34.509804%,45.098039%,14.117647%);fill-opacity:1;" d="M 13.515625 15.738281 C 13.855469 15.78125 14.164062 15.890625 14.449219 16.070312 C 14.515625 16.109375 14.546875 16.164062 14.535156 16.238281 C 14.171875 16.101562 13.832031 15.933594 13.515625 15.738281 Z M 13.515625 15.738281 "/>
</g>
<mask id="mask50">
  <g filter="url(#alpha)">
<rect x="0" y="0" width="25" height="25" style="fill:rgb(0%,0%,0%);fill-opacity:0.458824;stroke:none;"/>
  </g>
</mask>
<clipPath id="clip51">
  <rect x="0" y="0" width="25" height="25"/>
</clipPath>
<g id="surface155" clip-path="url(#clip51)">
<path style=" stroke:none;fill-rule:nonzero;fill:rgb(34.509804%,45.098039%,14.117647%);fill-opacity:1;" d="M 10.464844 15.738281 C 10.882812 15.777344 11.222656 15.941406 11.484375 16.238281 C 11.113281 16.113281 10.777344 15.945312 10.464844 15.738281 Z M 10.464844 15.738281 "/>
</g>
<mask id="mask51">
  <g filter="url(#alpha)">
<rect x="0" y="0" width="25" height="25" style="fill:rgb(0%,0%,0%);fill-opacity:0.337255;stroke:none;"/>
  </g>
</mask>
<clipPath id="clip52">
  <rect x="0" y="0" width="25" height="25"/>
</clipPath>
<g id="surface158" clip-path="url(#clip52)">
<path style=" stroke:none;fill-rule:nonzero;fill:rgb(34.509804%,45.098039%,14.117647%);fill-opacity:1;" d="M 16.566406 15.738281 C 16.398438 15.628906 16.230469 15.628906 16.058594 15.738281 C 16.230469 15.628906 16.398438 15.628906 16.566406 15.738281 Z M 16.566406 15.738281 "/>
</g>
<mask id="mask52">
  <g filter="url(#alpha)">
<rect x="0" y="0" width="25" height="25" style="fill:rgb(0%,0%,0%);fill-opacity:0.333333;stroke:none;"/>
  </g>
</mask>
<clipPath id="clip53">
  <rect x="0" y="0" width="25" height="25"/>
</clipPath>
<g id="surface161" clip-path="url(#clip53)">
<path style=" stroke:none;fill-rule:nonzero;fill:rgb(34.509804%,45.098039%,14.117647%);fill-opacity:1;" d="M 13.515625 15.738281 C 13.347656 15.628906 13.179688 15.628906 13.007812 15.738281 C 13.179688 15.628906 13.347656 15.628906 13.515625 15.738281 Z M 13.515625 15.738281 "/>
</g>
<mask id="mask53">
  <g filter="url(#alpha)">
<rect x="0" y="0" width="25" height="25" style="fill:rgb(0%,0%,0%);fill-opacity:0.364706;stroke:none;"/>
  </g>
</mask>
<clipPath id="clip54">
  <rect x="0" y="0" width="25" height="25"/>
</clipPath>
<g id="surface164" clip-path="url(#clip54)">
<path style=" stroke:none;fill-rule:nonzero;fill:rgb(34.509804%,45.098039%,14.117647%);fill-opacity:1;" d="M 10.464844 15.738281 C 10.296875 15.628906 10.128906 15.628906 9.957031 15.738281 C 10.128906 15.628906 10.296875 15.628906 10.464844 15.738281 Z M 10.464844 15.738281 "/>
</g>
<mask id="mask54">
  <g filter="url(#alpha)">
<rect x="0" y="0" width="25" height="25" style="fill:rgb(0%,0%,0%);fill-opacity:0.345098;stroke:none;"/>
  </g>
</mask>
<clipPath id="clip55">
  <rect x="0" y="0" width="25" height="25"/>
</clipPath>
<g id="surface167" clip-path="url(#clip55)">
<path style=" stroke:none;fill-rule:nonzero;fill:rgb(34.509804%,45.098039%,14.117647%);fill-opacity:1;" d="M 7.667969 14.492188 C 10.875 14.398438 14.097656 14.382812 17.332031 14.453125 C 17.636719 14.515625 17.808594 14.699219 17.839844 14.992188 C 17.78125 14.964844 17.726562 14.9375 17.667969 14.910156 C 17.582031 14.738281 17.441406 14.628906 17.246094 14.578125 C 14.066406 14.492188 10.875 14.464844 7.667969 14.492188 Z M 7.667969 14.492188 "/>
</g>
<mask id="mask55">
  <g filter="url(#alpha)">
<rect x="0" y="0" width="25" height="25" style="fill:rgb(0%,0%,0%);fill-opacity:0.776471;stroke:none;"/>
  </g>
</mask>
<clipPath id="clip56">
  <rect x="0" y="0" width="25" height="25"/>
</clipPath>
<g id="surface170" clip-path="url(#clip56)">
<path style=" stroke:none;fill-rule:nonzero;fill:rgb(34.509804%,45.098039%,14.117647%);fill-opacity:1;" d="M 7.667969 14.492188 C 10.875 14.464844 14.066406 14.492188 17.246094 14.578125 C 14.054688 14.5625 10.863281 14.578125 7.667969 14.617188 C 7.59375 14.761719 7.480469 14.859375 7.332031 14.910156 C 7.351562 14.777344 7.40625 14.667969 7.5 14.578125 C 7.527344 14.507812 7.585938 14.480469 7.667969 14.492188 Z M 7.667969 14.492188 "/>
</g>
<mask id="mask56">
  <g filter="url(#alpha)">
<rect x="0" y="0" width="25" height="25" style="fill:rgb(0%,0%,0%);fill-opacity:0.12549;stroke:none;"/>
  </g>
</mask>
<clipPath id="clip57">
  <rect x="0" y="0" width="25" height="25"/>
</clipPath>
<g id="surface173" clip-path="url(#clip57)">
<path style=" stroke:none;fill-rule:nonzero;fill:rgb(34.509804%,45.098039%,14.117647%);fill-opacity:1;" d="M 13.09375 9.59375 C 13.4375 10.460938 13.128906 10.832031 12.160156 10.714844 C 11.996094 10.679688 11.914062 10.582031 11.90625 10.421875 C 12.835938 10.875 13.230469 10.601562 13.09375 9.59375 Z M 13.09375 9.59375 "/>
</g>
<mask id="mask57">
  <g filter="url(#alpha)">
<rect x="0" y="0" width="25" height="25" style="fill:rgb(0%,0%,0%);fill-opacity:0.34902;stroke:none;"/>
  </g>
</mask>
<clipPath id="clip58">
  <rect x="0" y="0" width="25" height="25"/>
</clipPath>
<g id="surface176" clip-path="url(#clip58)">
<path style=" stroke:none;fill-rule:nonzero;fill:rgb(34.509804%,45.098039%,14.117647%);fill-opacity:1;" d="M 13.09375 9.59375 C 12.925781 9.359375 12.769531 9.109375 12.628906 8.84375 C 12.566406 8.765625 12.496094 8.753906 12.414062 8.804688 C 12.175781 9.121094 11.992188 9.464844 11.863281 9.84375 C 11.835938 10.039062 11.851562 10.230469 11.90625 10.421875 C 11.746094 10.234375 11.703125 10.011719 11.78125 9.757812 C 11.90625 9.371094 12.089844 9.011719 12.332031 8.679688 C 12.445312 8.570312 12.554688 8.570312 12.667969 8.679688 C 12.855469 8.96875 12.996094 9.273438 13.09375 9.59375 Z M 13.09375 9.59375 "/>
</g>
<mask id="mask58">
  <g filter="url(#alpha)">
<rect x="0" y="0" width="25" height="25" style="fill:rgb(0%,0%,0%);fill-opacity:0.054902;stroke:none;"/>
  </g>
</mask>
<clipPath id="clip59">
  <rect x="0" y="0" width="25" height="25"/>
</clipPath>
<g id="surface179" clip-path="url(#clip59)">
<path style=" stroke:none;fill-rule:nonzero;fill:rgb(34.509804%,45.098039%,14.117647%);fill-opacity:1;" d="M 20.128906 6.023438 C 20.09375 6.140625 20.011719 6.210938 19.871094 6.230469 C 19.535156 6.285156 19.195312 6.285156 18.855469 6.230469 C 18.808594 6.199219 18.78125 6.15625 18.769531 6.105469 C 19.234375 6.226562 19.683594 6.199219 20.128906 6.023438 Z M 20.128906 6.023438 "/>
</g>
<mask id="mask59">
  <g filter="url(#alpha)">
<rect x="0" y="0" width="25" height="25" style="fill:rgb(0%,0%,0%);fill-opacity:0.235294;stroke:none;"/>
  </g>
</mask>
<clipPath id="clip60">
  <rect x="0" y="0" width="25" height="25"/>
</clipPath>
<g id="surface182" clip-path="url(#clip60)">
<path style=" stroke:none;fill-rule:nonzero;fill:rgb(34.509804%,45.098039%,14.117647%);fill-opacity:1;" d="M 18.261719 5.773438 C 18.457031 5.851562 18.625 5.960938 18.769531 6.105469 C 18.535156 6.09375 18.363281 5.984375 18.261719 5.773438 Z M 18.261719 5.773438 "/>
</g>
<mask id="mask60">
  <g filter="url(#alpha)">
<rect x="0" y="0" width="25" height="25" style="fill:rgb(0%,0%,0%);fill-opacity:0.290196;stroke:none;"/>
  </g>
</mask>
<clipPath id="clip61">
  <rect x="0" y="0" width="25" height="25"/>
</clipPath>
<g id="surface185" clip-path="url(#clip61)">
<path style=" stroke:none;fill-rule:nonzero;fill:rgb(34.509804%,45.098039%,14.117647%);fill-opacity:1;" d="M 4.535156 5.773438 C 5.042969 6.160156 5.609375 6.257812 6.230469 6.0625 C 6.390625 5.945312 6.558594 5.847656 6.738281 5.773438 C 6.457031 6.136719 6.074219 6.304688 5.59375 6.269531 C 5.125 6.316406 4.769531 6.152344 4.535156 5.773438 Z M 4.535156 5.773438 "/>
</g>
<mask id="mask61">
  <g filter="url(#alpha)">
<rect x="0" y="0" width="25" height="25" style="fill:rgb(0%,0%,0%);fill-opacity:0.286275;stroke:none;"/>
  </g>
</mask>
<clipPath id="clip62">
  <rect x="0" y="0" width="25" height="25"/>
</clipPath>
<g id="surface188" clip-path="url(#clip62)">
<path style=" stroke:none;fill-rule:nonzero;fill:rgb(34.509804%,45.098039%,14.117647%);fill-opacity:1;" d="M 20.464844 5.773438 C 20.402344 5.917969 20.289062 6 20.128906 6.023438 C 20.191406 5.875 20.304688 5.792969 20.464844 5.773438 Z M 20.464844 5.773438 "/>
</g>
<mask id="mask62">
  <g filter="url(#alpha)">
<rect x="0" y="0" width="25" height="25" style="fill:rgb(0%,0%,0%);fill-opacity:0.231373;stroke:none;"/>
  </g>
</mask>
<clipPath id="clip63">
  <rect x="0" y="0" width="25" height="25"/>
</clipPath>
<g id="surface191" clip-path="url(#clip63)">
<path style=" stroke:none;fill-rule:nonzero;fill:rgb(34.509804%,45.098039%,14.117647%);fill-opacity:1;" d="M 4.363281 5.523438 C 4.484375 5.5625 4.539062 5.644531 4.535156 5.773438 C 4.402344 5.746094 4.347656 5.664062 4.363281 5.523438 Z M 4.363281 5.523438 "/>
</g>
<mask id="mask63">
  <g filter="url(#alpha)">
<rect x="0" y="0" width="25" height="25" style="fill:rgb(0%,0%,0%);fill-opacity:0.364706;stroke:none;"/>
  </g>
</mask>
<clipPath id="clip64">
  <rect x="0" y="0" width="25" height="25"/>
</clipPath>
<g id="surface194" clip-path="url(#clip64)">
<path style=" stroke:none;fill-rule:nonzero;fill:rgb(34.509804%,45.098039%,14.117647%);fill-opacity:1;" d="M 18.007812 5.355469 C 18.125 5.472656 18.210938 5.613281 18.261719 5.773438 C 18.070312 5.703125 17.988281 5.5625 18.007812 5.355469 Z M 18.007812 5.355469 "/>
</g>
<mask id="mask64">
  <g filter="url(#alpha)">
<rect x="0" y="0" width="25" height="25" style="fill:rgb(0%,0%,0%);fill-opacity:0.396078;stroke:none;"/>
  </g>
</mask>
<clipPath id="clip65">
  <rect x="0" y="0" width="25" height="25"/>
</clipPath>
<g id="surface197" clip-path="url(#clip65)">
<path style=" stroke:none;fill-rule:nonzero;fill:rgb(34.509804%,45.098039%,14.117647%);fill-opacity:1;" d="M 6.90625 5.523438 C 6.914062 5.648438 6.855469 5.734375 6.738281 5.773438 C 6.730469 5.644531 6.789062 5.5625 6.90625 5.523438 Z M 6.90625 5.523438 "/>
</g>
<mask id="mask65">
  <g filter="url(#alpha)">
<rect x="0" y="0" width="25" height="25" style="fill:rgb(0%,0%,0%);fill-opacity:0.662745;stroke:none;"/>
  </g>
</mask>
<clipPath id="clip66">
  <rect x="0" y="0" width="25" height="25"/>
</clipPath>
<g id="surface200" clip-path="url(#clip66)">
<path style=" stroke:none;fill-rule:nonzero;fill:rgb(34.509804%,45.098039%,14.117647%);fill-opacity:1;" d="M 5.128906 5.273438 C 5.414062 5.417969 5.726562 5.472656 6.058594 5.441406 C 5.777344 5.660156 5.496094 5.660156 5.210938 5.441406 C 5.183594 5.386719 5.15625 5.328125 5.128906 5.273438 Z M 5.128906 5.273438 "/>
</g>
<mask id="mask66">
  <g filter="url(#alpha)">
<rect x="0" y="0" width="25" height="25" style="fill:rgb(0%,0%,0%);fill-opacity:0.0588235;stroke:none;"/>
  </g>
</mask>
<clipPath id="clip67">
  <rect x="0" y="0" width="25" height="25"/>
</clipPath>
<g id="surface203" clip-path="url(#clip67)">
<path style=" stroke:none;fill-rule:nonzero;fill:rgb(34.509804%,45.098039%,14.117647%);fill-opacity:1;" d="M 6.398438 5.023438 C 6.382812 5.25 6.269531 5.386719 6.058594 5.441406 C 6.152344 5.347656 6.210938 5.238281 6.230469 5.109375 C 6.285156 5.082031 6.34375 5.050781 6.398438 5.023438 Z M 6.398438 5.023438 "/>
</g>
<mask id="mask67">
  <g filter="url(#alpha)">
<rect x="0" y="0" width="25" height="25" style="fill:rgb(0%,0%,0%);fill-opacity:0.494118;stroke:none;"/>
  </g>
</mask>
<clipPath id="clip68">
  <rect x="0" y="0" width="25" height="25"/>
</clipPath>
<g id="surface206" clip-path="url(#clip68)">
<path style=" stroke:none;fill-rule:nonzero;fill:rgb(34.509804%,45.098039%,14.117647%);fill-opacity:1;" d="M 4.195312 5.023438 C 4.277344 5.175781 4.332031 5.339844 4.363281 5.523438 C 4.28125 5.496094 4.222656 5.441406 4.195312 5.355469 C 4.195312 5.246094 4.195312 5.136719 4.195312 5.023438 Z M 4.195312 5.023438 "/>
</g>
<mask id="mask68">
  <g filter="url(#alpha)">
<rect x="0" y="0" width="25" height="25" style="fill:rgb(0%,0%,0%);fill-opacity:0.298039;stroke:none;"/>
  </g>
</mask>
<clipPath id="clip69">
  <rect x="0" y="0" width="25" height="25"/>
</clipPath>
<g id="surface209" clip-path="url(#clip69)">
<path style=" stroke:none;fill-rule:nonzero;fill:rgb(34.509804%,45.098039%,14.117647%);fill-opacity:1;" d="M 20.042969 5.023438 C 20.070312 5.023438 20.097656 5.023438 20.128906 5.023438 C 19.902344 5.5625 19.503906 5.714844 18.941406 5.480469 C 18.867188 5.421875 18.808594 5.355469 18.769531 5.273438 C 18.878906 5.269531 18.960938 5.3125 19.027344 5.398438 C 19.472656 5.527344 19.808594 5.402344 20.042969 5.023438 Z M 20.042969 5.023438 "/>
</g>
<mask id="mask69">
  <g filter="url(#alpha)">
<rect x="0" y="0" width="25" height="25" style="fill:rgb(0%,0%,0%);fill-opacity:0.0352941;stroke:none;"/>
  </g>
</mask>
<clipPath id="clip70">
  <rect x="0" y="0" width="25" height="25"/>
</clipPath>
<g id="surface212" clip-path="url(#clip70)">
<path style=" stroke:none;fill-rule:nonzero;fill:rgb(34.509804%,45.098039%,14.117647%);fill-opacity:1;" d="M 4.957031 5.191406 C 5.015625 5.21875 5.070312 5.246094 5.128906 5.273438 C 5.15625 5.328125 5.183594 5.386719 5.210938 5.441406 C 5.042969 5.441406 4.957031 5.355469 4.957031 5.191406 Z M 4.957031 5.191406 "/>
</g>
<mask id="mask70">
  <g filter="url(#alpha)">
<rect x="0" y="0" width="25" height="25" style="fill:rgb(0%,0%,0%);fill-opacity:0.196078;stroke:none;"/>
  </g>
</mask>
<clipPath id="clip71">
  <rect x="0" y="0" width="25" height="25"/>
</clipPath>
<g id="surface215" clip-path="url(#clip71)">
<path style=" stroke:none;fill-rule:nonzero;fill:rgb(34.509804%,45.098039%,14.117647%);fill-opacity:1;" d="M 18.601562 5.023438 C 18.660156 5.050781 18.714844 5.082031 18.769531 5.109375 C 18.769531 5.164062 18.769531 5.21875 18.769531 5.273438 C 18.652344 5.234375 18.59375 5.152344 18.601562 5.023438 Z M 18.601562 5.023438 "/>
</g>
<mask id="mask71">
  <g filter="url(#alpha)">
<rect x="0" y="0" width="25" height="25" style="fill:rgb(0%,0%,0%);fill-opacity:0.780392;stroke:none;"/>
  </g>
</mask>
<clipPath id="clip72">
  <rect x="0" y="0" width="25" height="25"/>
</clipPath>
<g id="surface218" clip-path="url(#clip72)">
<path style=" stroke:none;fill-rule:nonzero;fill:rgb(34.509804%,45.098039%,14.117647%);fill-opacity:1;" d="M 17.839844 3.28125 C 17.816406 3.976562 17.84375 4.667969 17.921875 5.355469 C 17.871094 5.347656 17.828125 5.320312 17.796875 5.273438 C 17.753906 4.636719 17.738281 4 17.753906 3.363281 C 14.25 3.363281 10.75 3.363281 7.246094 3.363281 C 7.261719 4 7.246094 4.636719 7.203125 5.273438 C 7.171875 5.320312 7.128906 5.347656 7.078125 5.355469 C 7.15625 4.667969 7.183594 3.976562 7.160156 3.28125 C 10.71875 3.171875 14.28125 3.171875 17.839844 3.28125 Z M 17.839844 3.28125 "/>
</g>
</defs>
<g id="surface1">
<use xlink:href="#surface5" mask="url(#mask0)"/>
<use xlink:href="#surface8" mask="url(#mask1)"/>
<use xlink:href="#surface11" mask="url(#mask2)"/>
<path style=" stroke:none;fill-rule:nonzero;fill:rgb(34.509804%,45.098039%,14.117647%);fill-opacity:1;" d="M 5.890625 1.121094 C 6.152344 1.183594 6.292969 1.351562 6.3125 1.621094 C 6.339844 2.785156 6.3125 3.949219 6.230469 5.109375 C 6.210938 5.238281 6.152344 5.347656 6.058594 5.441406 C 5.726562 5.472656 5.414062 5.417969 5.128906 5.273438 C 5.128906 5.167969 5.089844 5.085938 5 5.023438 C 4.945312 3.863281 4.945312 2.699219 5 1.535156 C 5.089844 1.476562 5.128906 1.390625 5.128906 1.289062 C 5.355469 1.152344 5.613281 1.097656 5.890625 1.121094 Z M 5.890625 1.121094 "/>
<path style=" stroke:none;fill-rule:nonzero;fill:rgb(34.509804%,45.098039%,14.117647%);fill-opacity:1;" d="M 19.109375 1.039062 C 19.355469 1.027344 19.582031 1.082031 19.789062 1.203125 C 19.804688 1.34375 19.875 1.457031 20 1.535156 C 20.042969 2.699219 20.054688 3.863281 20.042969 5.023438 C 19.808594 5.402344 19.472656 5.527344 19.027344 5.398438 C 18.960938 5.3125 18.878906 5.269531 18.769531 5.273438 C 18.769531 5.21875 18.769531 5.164062 18.769531 5.109375 C 18.691406 3.949219 18.664062 2.785156 18.6875 1.621094 C 18.730469 1.355469 18.871094 1.164062 19.109375 1.039062 Z M 19.109375 1.039062 "/>
<use xlink:href="#surface14" mask="url(#mask3)"/>
<use xlink:href="#surface17" mask="url(#mask4)"/>
<use xlink:href="#surface20" mask="url(#mask5)"/>
<use xlink:href="#surface23" mask="url(#mask6)"/>
<use xlink:href="#surface26" mask="url(#mask7)"/>
<use xlink:href="#surface29" mask="url(#mask8)"/>
<use xlink:href="#surface32" mask="url(#mask9)"/>
<use xlink:href="#surface35" mask="url(#mask10)"/>
<use xlink:href="#surface38" mask="url(#mask11)"/>
<use xlink:href="#surface41" mask="url(#mask12)"/>
<path style=" stroke:none;fill-rule:nonzero;fill:rgb(34.509804%,45.098039%,14.117647%);fill-opacity:1;" d="M 4.195312 5.355469 C 4.222656 5.441406 4.28125 5.496094 4.363281 5.523438 C 4.347656 5.664062 4.402344 5.746094 4.535156 5.773438 C 4.769531 6.152344 5.125 6.316406 5.59375 6.269531 C 6.074219 6.304688 6.457031 6.136719 6.738281 5.773438 C 6.855469 5.734375 6.914062 5.648438 6.90625 5.523438 C 6.992188 5.496094 7.046875 5.441406 7.078125 5.355469 C 7.128906 5.347656 7.171875 5.320312 7.203125 5.273438 C 7.246094 4.636719 7.261719 4 7.246094 3.363281 C 10.75 3.363281 14.25 3.363281 17.753906 3.363281 C 17.738281 4 17.753906 4.636719 17.796875 5.273438 C 17.828125 5.320312 17.871094 5.347656 17.921875 5.355469 C 17.953125 5.355469 17.980469 5.355469 18.007812 5.355469 C 17.988281 5.5625 18.070312 5.703125 18.261719 5.773438 C 18.363281 5.984375 18.535156 6.09375 18.769531 6.105469 C 18.78125 6.15625 18.808594 6.199219 18.855469 6.230469 C 19.195312 6.285156 19.535156 6.285156 19.871094 6.230469 C 20.011719 6.210938 20.09375 6.140625 20.128906 6.023438 C 20.289062 6 20.402344 5.917969 20.464844 5.773438 C 20.667969 5.632812 20.808594 5.4375 20.890625 5.191406 C 20.972656 4.597656 21.003906 3.988281 20.972656 3.363281 C 21.933594 3.363281 22.894531 3.363281 23.855469 3.363281 C 23.855469 10.035156 23.855469 16.707031 23.855469 23.378906 C 16.285156 23.378906 8.714844 23.378906 1.144531 23.378906 C 1.144531 16.707031 1.144531 10.035156 1.144531 3.363281 C 2.105469 3.363281 3.066406 3.363281 4.027344 3.363281 C 4.011719 3.945312 4.027344 4.527344 4.066406 5.109375 C 4.085938 5.210938 4.128906 5.292969 4.195312 5.355469 Z M 2.667969 7.101562 C 2.667969 12.03125 2.667969 16.957031 2.667969 21.886719 C 9.222656 21.886719 15.777344 21.886719 22.332031 21.886719 C 22.332031 16.957031 22.332031 12.03125 22.332031 7.101562 C 15.777344 7.101562 9.222656 7.101562 2.667969 7.101562 Z M 13.007812 11.503906 C 13.0625 11.492188 13.101562 11.464844 13.136719 11.421875 C 13.148438 12.210938 13.191406 12.984375 13.261719 13.746094 C 14.632812 13.816406 16.015625 13.855469 17.414062 13.871094 C 17.554688 13.921875 17.695312 13.960938 17.839844 13.996094 C 18.09375 14.234375 18.308594 14.511719 18.472656 14.824219 C 18.488281 16.472656 18.53125 18.105469 18.601562 19.726562 C 19.320312 19.808594 20.054688 19.835938 20.804688 19.808594 C 20.828125 20 20.796875 20.179688 20.71875 20.347656 C 15.238281 20.402344 9.761719 20.402344 4.28125 20.347656 C 4.203125 20.179688 4.171875 20 4.195312 19.808594 C 4.945312 19.835938 5.679688 19.808594 6.398438 19.726562 C 6.46875 18.132812 6.511719 16.527344 6.527344 14.910156 C 6.582031 14.730469 6.652344 14.566406 6.738281 14.410156 C 6.894531 14.164062 7.121094 14 7.414062 13.910156 C 8.867188 13.859375 10.308594 13.804688 11.738281 13.746094 C 11.808594 12.984375 11.851562 12.210938 11.863281 11.421875 C 11.90625 11.460938 11.949219 11.503906 11.992188 11.542969 C 12.347656 11.613281 12.683594 11.597656 13.007812 11.503906 Z M 13.09375 9.59375 C 13.230469 10.601562 12.835938 10.875 11.90625 10.421875 C 11.851562 10.230469 11.835938 10.039062 11.863281 9.84375 C 11.992188 9.464844 12.175781 9.121094 12.414062 8.804688 C 12.496094 8.753906 12.566406 8.765625 12.628906 8.84375 C 12.769531 9.109375 12.925781 9.359375 13.09375 9.59375 Z M 13.09375 9.59375 "/>
<use xlink:href="#surface44" mask="url(#mask13)"/>
<use xlink:href="#surface47" mask="url(#mask14)"/>
<path style=" stroke:none;fill-rule:nonzero;fill:rgb(34.509804%,45.098039%,14.117647%);fill-opacity:1;" d="M 3.433594 7.847656 C 9.476562 7.847656 15.523438 7.847656 21.566406 7.847656 C 21.566406 12.277344 21.566406 16.707031 21.566406 21.136719 C 15.523438 21.136719 9.476562 21.136719 3.433594 21.136719 C 3.433594 16.707031 3.433594 12.277344 3.433594 7.847656 Z M 13.007812 11.503906 C 13.0625 11.492188 13.101562 11.464844 13.136719 11.421875 C 13.148438 12.210938 13.191406 12.984375 13.261719 13.746094 C 14.632812 13.816406 16.015625 13.855469 17.414062 13.871094 C 17.554688 13.921875 17.695312 13.960938 17.839844 13.996094 C 18.09375 14.234375 18.308594 14.511719 18.472656 14.824219 C 18.488281 16.472656 18.53125 18.105469 18.601562 19.726562 C 19.320312 19.808594 20.054688 19.835938 20.804688 19.808594 C 20.828125 20 20.796875 20.179688 20.71875 20.347656 C 15.238281 20.402344 9.761719 20.402344 4.28125 20.347656 C 4.203125 20.179688 4.171875 20 4.195312 19.808594 C 4.945312 19.835938 5.679688 19.808594 6.398438 19.726562 C 6.46875 18.132812 6.511719 16.527344 6.527344 14.910156 C 6.582031 14.730469 6.652344 14.566406 6.738281 14.410156 C 6.894531 14.164062 7.121094 14 7.414062 13.910156 C 8.867188 13.859375 10.308594 13.804688 11.738281 13.746094 C 11.808594 12.984375 11.851562 12.210938 11.863281 11.421875 C 11.90625 11.460938 11.949219 11.503906 11.992188 11.542969 C 12.347656 11.613281 12.683594 11.597656 13.007812 11.503906 Z M 13.09375 9.59375 C 13.230469 10.601562 12.835938 10.875 11.90625 10.421875 C 11.851562 10.230469 11.835938 10.039062 11.863281 9.84375 C 11.992188 9.464844 12.175781 9.121094 12.414062 8.804688 C 12.496094 8.753906 12.566406 8.765625 12.628906 8.84375 C 12.769531 9.109375 12.925781 9.359375 13.09375 9.59375 Z M 13.09375 9.59375 "/>
<use xlink:href="#surface50" mask="url(#mask15)"/>
<use xlink:href="#surface53" mask="url(#mask16)"/>
<use xlink:href="#surface56" mask="url(#mask17)"/>
<use xlink:href="#surface59" mask="url(#mask18)"/>
<use xlink:href="#surface62" mask="url(#mask19)"/>
<use xlink:href="#surface65" mask="url(#mask20)"/>
<use xlink:href="#surface68" mask="url(#mask21)"/>
<use xlink:href="#surface71" mask="url(#mask22)"/>
<use xlink:href="#surface74" mask="url(#mask23)"/>
<use xlink:href="#surface77" mask="url(#mask24)"/>
<use xlink:href="#surface80" mask="url(#mask25)"/>
<use xlink:href="#surface83" mask="url(#mask26)"/>
<use xlink:href="#surface86" mask="url(#mask27)"/>
<use xlink:href="#surface89" mask="url(#mask28)"/>
<use xlink:href="#surface92" mask="url(#mask29)"/>
<use xlink:href="#surface95" mask="url(#mask30)"/>
<use xlink:href="#surface98" mask="url(#mask31)"/>
<path style=" stroke:none;fill-rule:nonzero;fill:rgb(34.509804%,45.098039%,14.117647%);fill-opacity:1;" d="M 9.957031 16.488281 C 10.292969 16.5625 10.632812 16.644531 10.972656 16.734375 C 11.09375 16.910156 11.261719 17.035156 11.484375 17.109375 C 11.566406 17.125 11.652344 17.136719 11.738281 17.152344 C 11.867188 17.140625 11.953125 17.085938 11.992188 16.984375 C 12.019531 16.984375 12.046875 16.984375 12.078125 16.984375 C 12.460938 16.921875 12.769531 16.757812 13.007812 16.488281 C 13.359375 16.519531 13.699219 16.605469 14.027344 16.734375 C 14.179688 16.859375 14.351562 16.984375 14.535156 17.109375 C 14.617188 17.125 14.703125 17.136719 14.789062 17.152344 C 14.917969 17.140625 15.003906 17.085938 15.042969 16.984375 C 15.460938 16.945312 15.800781 16.78125 16.058594 16.488281 C 16.410156 16.519531 16.75 16.605469 17.078125 16.734375 C 17.238281 16.953125 17.464844 17.09375 17.753906 17.152344 C 17.753906 17.980469 17.753906 18.8125 17.753906 19.644531 C 14.25 19.644531 10.75 19.644531 7.246094 19.644531 C 7.246094 18.617188 7.246094 17.59375 7.246094 16.570312 C 7.46875 16.640625 7.691406 16.699219 7.921875 16.734375 C 8.042969 16.910156 8.210938 17.035156 8.433594 17.109375 C 8.515625 17.125 8.601562 17.136719 8.6875 17.152344 C 8.816406 17.140625 8.902344 17.085938 8.941406 16.984375 C 9.359375 16.945312 9.699219 16.78125 9.957031 16.488281 Z M 9.957031 16.488281 "/>
<use xlink:href="#surface101" mask="url(#mask32)"/>
<use xlink:href="#surface104" mask="url(#mask33)"/>
<use xlink:href="#surface107" mask="url(#mask34)"/>
<use xlink:href="#surface110" mask="url(#mask35)"/>
<use xlink:href="#surface113" mask="url(#mask36)"/>
<use xlink:href="#surface116" mask="url(#mask37)"/>
<use xlink:href="#surface119" mask="url(#mask38)"/>
<use xlink:href="#surface122" mask="url(#mask39)"/>
<use xlink:href="#surface125" mask="url(#mask40)"/>
<use xlink:href="#surface128" mask="url(#mask41)"/>
<use xlink:href="#surface131" mask="url(#mask42)"/>
<use xlink:href="#surface134" mask="url(#mask43)"/>
<use xlink:href="#surface137" mask="url(#mask44)"/>
<use xlink:href="#surface140" mask="url(#mask45)"/>
<use xlink:href="#surface143" mask="url(#mask46)"/>
<path style=" stroke:none;fill-rule:nonzero;fill:rgb(34.509804%,45.098039%,14.117647%);fill-opacity:1;" d="M 17.246094 14.578125 C 17.441406 14.628906 17.582031 14.738281 17.667969 14.910156 C 17.71875 15.140625 17.746094 15.375 17.753906 15.613281 C 17.75 15.832031 17.695312 16.011719 17.585938 16.15625 C 17.289062 15.925781 16.949219 15.789062 16.566406 15.738281 C 16.515625 15.617188 16.414062 15.5625 16.269531 15.574219 C 16.15625 15.589844 16.082031 15.644531 16.058594 15.738281 C 15.617188 15.734375 15.28125 15.898438 15.042969 16.238281 C 14.871094 16.347656 14.703125 16.347656 14.535156 16.238281 C 14.546875 16.164062 14.515625 16.109375 14.449219 16.070312 C 14.164062 15.890625 13.855469 15.78125 13.515625 15.738281 C 13.464844 15.617188 13.363281 15.5625 13.21875 15.574219 C 13.105469 15.589844 13.03125 15.644531 13.007812 15.738281 C 12.566406 15.734375 12.230469 15.898438 11.992188 16.238281 C 11.820312 16.347656 11.652344 16.347656 11.484375 16.238281 C 11.222656 15.941406 10.882812 15.777344 10.464844 15.738281 C 10.414062 15.617188 10.3125 15.5625 10.167969 15.574219 C 10.054688 15.589844 9.980469 15.644531 9.957031 15.738281 C 9.515625 15.734375 9.179688 15.898438 8.941406 16.238281 C 8.769531 16.347656 8.601562 16.347656 8.433594 16.238281 C 8.339844 16.03125 8.167969 15.949219 7.921875 15.988281 C 7.832031 15.875 7.71875 15.792969 7.585938 15.738281 C 7.515625 15.628906 7.417969 15.546875 7.289062 15.488281 C 7.230469 15.289062 7.242188 15.09375 7.332031 14.910156 C 7.480469 14.859375 7.59375 14.761719 7.667969 14.617188 C 10.863281 14.578125 14.054688 14.5625 17.246094 14.578125 Z M 17.246094 14.578125 "/>
<use xlink:href="#surface146" mask="url(#mask47)"/>
<use xlink:href="#surface149" mask="url(#mask48)"/>
<use xlink:href="#surface152" mask="url(#mask49)"/>
<use xlink:href="#surface155" mask="url(#mask50)"/>
<use xlink:href="#surface158" mask="url(#mask51)"/>
<use xlink:href="#surface161" mask="url(#mask52)"/>
<use xlink:href="#surface164" mask="url(#mask53)"/>
<use xlink:href="#surface167" mask="url(#mask54)"/>
<use xlink:href="#surface170" mask="url(#mask55)"/>
<path style=" stroke:none;fill-rule:nonzero;fill:rgb(34.509804%,45.098039%,14.117647%);fill-opacity:1;" d="M 11.738281 11.335938 C 11.804688 11.285156 11.886719 11.253906 11.992188 11.253906 C 12.203125 11.351562 12.429688 11.40625 12.667969 11.421875 C 12.667969 11.449219 12.667969 11.476562 12.667969 11.503906 C 12.335938 11.523438 12.027344 11.46875 11.738281 11.335938 Z M 11.738281 11.335938 "/>
<use xlink:href="#surface173" mask="url(#mask56)"/>
<use xlink:href="#surface176" mask="url(#mask57)"/>
<use xlink:href="#surface179" mask="url(#mask58)"/>
<use xlink:href="#surface182" mask="url(#mask59)"/>
<use xlink:href="#surface185" mask="url(#mask60)"/>
<use xlink:href="#surface188" mask="url(#mask61)"/>
<use xlink:href="#surface191" mask="url(#mask62)"/>
<use xlink:href="#surface194" mask="url(#mask63)"/>
<use xlink:href="#surface197" mask="url(#mask64)"/>
<use xlink:href="#surface200" mask="url(#mask65)"/>
<use xlink:href="#surface203" mask="url(#mask66)"/>
<use xlink:href="#surface206" mask="url(#mask67)"/>
<use xlink:href="#surface209" mask="url(#mask68)"/>
<use xlink:href="#surface212" mask="url(#mask69)"/>
<use xlink:href="#surface215" mask="url(#mask70)"/>
<use xlink:href="#surface218" mask="url(#mask71)"/>
</g>
</svg>
