<?xml version="1.0" encoding="UTF-8"?>
<svg xmlns="http://www.w3.org/2000/svg" xmlns:xlink="http://www.w3.org/1999/xlink" width="25px" height="25px" viewBox="0 0 25 25" version="1.1">
<g id="surface1">
<path style=" stroke:none;fill-rule:nonzero;fill:black;fill-opacity:1;" d="M 20.261719 5.011719 C 19.675781 5.25 19.449219 5.9375 19.761719 6.523438 C 19.960938 6.886719 19.835938 6.925781 19.363281 6.636719 C 19.125 6.488281 18.726562 6.375 18.449219 6.375 L 17.960938 6.375 L 18.226562 6.664062 C 18.375 6.824219 18.5 6.988281 18.5 7.023438 C 18.5 7.238281 17.113281 7.300781 10 7.363281 C 1.539062 7.4375 1.875 7.414062 1.449219 8.136719 C 1.273438 8.425781 1.25 8.949219 1.25 11.613281 L 1.25 14.75 L 2 14.75 L 2 11.636719 C 2 8.960938 2.023438 8.488281 2.199219 8.324219 C 2.300781 8.210938 2.449219 8.125 2.511719 8.125 C 2.574219 8.125 2.625 8.664062 2.625 9.3125 C 2.625 9.960938 2.710938 11.0625 2.824219 11.75 C 3 12.875 3 13.113281 2.835938 14.101562 C 2.675781 15.050781 2.675781 15.476562 2.824219 17.4375 C 2.914062 18.675781 3 19.789062 3 19.898438 C 3 20.074219 3.101562 20.125 3.4375 20.125 L 3.875 20.125 L 3.875 17.988281 C 3.875 15.875 3.875 15.851562 4.210938 15.414062 C 4.488281 15.0625 4.523438 14.9375 4.398438 14.773438 C 4.023438 14.25 4.0625 13.675781 4.539062 13 C 5.164062 12.0625 5.164062 12.074219 8.738281 12 C 12.289062 11.925781 12.125 11.976562 12.773438 11.074219 C 13.101562 10.613281 13.113281 10.5625 12.9375 10.289062 L 12.75 10 L 13.800781 10 C 14.386719 10 15 10.050781 15.164062 10.113281 C 15.550781 10.261719 16.789062 11.335938 16.898438 11.636719 C 17.0625 12.039062 16.675781 12.363281 15.976562 12.398438 C 15.375 12.4375 15.324219 12.460938 15.238281 12.8125 C 15.1875 13.011719 15 13.8125 14.8125 14.585938 C 14.574219 15.636719 14.523438 16.050781 14.613281 16.238281 C 14.710938 16.425781 15.125 19.449219 15.125 20.011719 C 15.125 20.074219 15.324219 20.125 15.5625 20.125 L 16 20.125 L 16 14.773438 L 16.351562 14.6875 C 17.136719 14.5 17.574219 14.039062 18.636719 12.3125 C 19.613281 10.738281 19.710938 10.613281 20 10.6875 C 20.175781 10.726562 20.824219 10.8125 21.4375 10.875 C 22.0625 10.9375 22.675781 11.023438 22.8125 11.0625 C 23.164062 11.164062 23.75 10.699219 23.75 10.3125 C 23.75 10.136719 23.273438 9.300781 22.664062 8.375 C 21.800781 7.101562 21.488281 6.726562 21.226562 6.675781 C 20.976562 6.613281 20.863281 6.5 20.8125 6.226562 C 20.699219 5.761719 20.863281 5.585938 21.601562 5.3125 C 21.925781 5.1875 22.238281 5.039062 22.3125 4.988281 C 22.476562 4.835938 20.636719 4.863281 20.261719 5.011719 Z M 20.261719 5.011719 "/>
<path style=" stroke:none;fill-rule:nonzero;fill:black;fill-opacity:1;" d="M 10.664062 13.539062 C 10.523438 13.6875 10.300781 14.136719 10.175781 14.550781 C 9.9375 15.3125 9.675781 15.574219 9.085938 15.648438 C 8.800781 15.675781 8.625 15.550781 7.949219 14.8125 L 7.148438 13.9375 L 6.886719 14.5 C 6.449219 15.449219 6.585938 16.5 7.25 17.335938 C 7.386719 17.511719 7.5 17.75 7.5 17.863281 C 7.5 17.960938 7.8125 18.351562 8.199219 18.710938 C 8.824219 19.273438 8.898438 19.398438 8.851562 19.738281 C 8.800781 20.125 8.800781 20.125 9.335938 20.125 C 9.675781 20.125 9.863281 20.074219 9.8125 20 C 9.773438 19.9375 9.601562 19.875 9.425781 19.875 C 9.210938 19.875 9.125 19.800781 9.113281 19.625 C 9.101562 19.488281 9.085938 19.3125 9.074219 19.226562 C 9.0625 19.136719 9.488281 18.835938 10 18.5625 C 11.550781 17.710938 12.125 16.539062 11.699219 15.101562 C 11.511719 14.460938 11.511719 14.425781 11.761719 14.226562 L 12.011719 14.011719 L 11.738281 13.625 C 11.398438 13.1875 11.050781 13.148438 10.664062 13.539062 Z M 10.664062 13.539062 "/>
</g>
</svg>
