<?xml version="1.0" encoding="UTF-8"?>
<!DOCTYPE svg PUBLIC "-//W3C//DTD SVG 1.1//EN" "http://www.w3.org/Graphics/SVG/1.1/DTD/svg11.dtd">
<svg xmlns="http://www.w3.org/2000/svg" version="1.1" width="20px" height="20px" style="shape-rendering:geometricPrecision; text-rendering:geometricPrecision; image-rendering:optimizeQuality; fill-rule:evenodd; clip-rule:evenodd" xmlns:xlink="http://www.w3.org/1999/xlink">
<g><path style="opacity:0.944" fill="#bc4824" d="M 399.5,-0.5 C 408.833,-0.5 418.167,-0.5 427.5,-0.5C 473.833,9.16667 501.833,37.1667 511.5,83.5C 511.5,223.5 511.5,363.5 511.5,503.5C 509.833,507.167 507.167,509.833 503.5,511.5C 351.5,511.5 199.5,511.5 47.5,511.5C 44.1141,509.277 41.6141,506.277 40,502.5C 39.3333,474.833 39.3333,447.167 40,419.5C 43.0133,414.465 47.1799,413.298 52.5,416C 53.7014,416.903 54.5348,418.069 55,419.5C 55.4999,433.163 55.6666,446.829 55.5,460.5C 83.5,460.5 111.5,460.5 139.5,460.5C 139.5,426.167 139.5,391.833 139.5,357.5C 133.435,357.739 127.435,357.239 121.5,356C 118.333,354.167 115.833,351.667 114,348.5C 111.73,336.718 112.064,325.051 115,313.5C 117.739,309.381 121.573,307.214 126.5,307C 157.833,306.333 189.167,306.333 220.5,307C 226.653,308.465 228.82,312.298 227,318.5C 226.5,320.333 225.333,321.5 223.5,322C 191.835,322.5 160.168,322.667 128.5,322.5C 128.5,328.833 128.5,335.167 128.5,341.5C 198.167,341.5 267.833,341.5 337.5,341.5C 337.5,335.167 337.5,328.833 337.5,322.5C 308.498,322.667 279.498,322.5 250.5,322C 246.788,319.487 245.622,315.987 247,311.5C 248.339,308.906 250.506,307.406 253.5,307C 282.5,306.333 311.5,306.333 340.5,307C 346.666,307.496 350.833,310.662 353,316.5C 353.667,326.833 353.667,337.167 353,347.5C 351.558,351.275 349.058,354.108 345.5,356C 339.565,357.239 333.565,357.739 327.5,357.5C 327.5,391.833 327.5,426.167 327.5,460.5C 355.5,460.5 383.5,460.5 411.5,460.5C 411.991,406.416 411.491,352.416 410,298.5C 392.541,270.412 374.708,242.579 356.5,215C 316.325,193.412 275.992,172.079 235.5,151C 234.167,150.333 232.833,150.333 231.5,151C 192.167,171.667 152.833,192.333 113.5,213C 111.391,214.141 109.558,215.641 108,217.5C 90.6667,244.833 73.3333,272.167 56,299.5C 55.6667,329.833 55.3333,360.167 55,390.5C 52.5647,395.224 48.7314,396.724 43.5,395C 41.9512,393.786 40.7845,392.286 40,390.5C 39.6667,368.5 39.3333,346.5 39,324.5C 28.1092,331.26 17.2759,331.093 6.5,324C 3.48842,320.846 1.15508,317.346 -0.5,313.5C -0.5,309.167 -0.5,304.833 -0.5,300.5C 19.9621,267.597 40.4621,234.597 61,201.5C 65.2188,194.228 70.0522,187.395 75.5,181C 126.342,153.745 177.342,126.745 228.5,100C 231.833,99.3333 235.167,99.3333 238.5,100C 263.5,113.167 288.5,126.333 313.5,139.5C 314.139,120.152 314.972,100.818 316,81.5C 326.238,36.0939 354.072,8.76054 399.5,-0.5 Z M 412.5,14.5 C 463.284,19.451 491.284,47.2843 496.5,98C 441.168,98.5 385.834,98.6667 330.5,98.5C 332.258,62.1346 349.591,36.3013 382.5,21C 392.326,17.3371 402.326,15.1704 412.5,14.5 Z M 330.5,114.5 C 385.833,114.5 441.167,114.5 496.5,114.5C 496.5,142.167 496.5,169.833 496.5,197.5C 465.165,197.667 433.832,197.5 402.5,197C 399.113,190.536 394.78,184.869 389.5,180C 369.92,169.627 350.42,159.127 331,148.5C 330.5,137.172 330.333,125.838 330.5,114.5 Z M 232.5,115.5 C 281.762,140.798 330.762,166.632 379.5,193C 404.122,229.63 427.956,266.797 451,304.5C 451.003,312.139 447.17,314.972 439.5,313C 417.794,281.094 396.96,248.594 377,215.5C 374.217,211.049 371.05,206.883 367.5,203C 324.484,179.491 281.15,156.491 237.5,134C 232.889,132.993 228.555,133.66 224.5,136C 183.167,158 141.833,180 100.5,202C 96.5783,205.251 93.4117,209.084 91,213.5C 70.9168,246.002 50.5834,278.335 30,310.5C 26.205,313.803 22.0383,314.303 17.5,312C 15.6533,309.421 15.1533,306.588 16,303.5C 39.1667,267 62.3333,230.5 85.5,194C 134.562,167.805 183.562,141.638 232.5,115.5 Z M 227.5,201.5 C 252.285,200.953 266.285,212.953 269.5,237.5C 267.167,259.167 255.167,271.167 233.5,273.5C 211.58,271.081 199.58,258.914 197.5,237C 199.427,218.247 209.427,206.414 227.5,201.5 Z M 413.5,213.5 C 441.167,213.5 468.833,213.5 496.5,213.5C 496.5,241.5 496.5,269.5 496.5,297.5C 485.918,297.82 475.418,297.487 465,296.5C 447.811,268.777 430.645,241.111 413.5,213.5 Z M 466.5,313.5 C 476.5,313.5 486.5,313.5 496.5,313.5C 496.5,341.167 496.5,368.833 496.5,396.5C 473.5,396.5 450.5,396.5 427.5,396.5C 427.333,372.498 427.5,348.498 428,324.5C 430.469,326.652 433.302,328.152 436.5,329C 450.885,331.976 460.885,326.81 466.5,313.5 Z M 169.5,358.5 C 211.998,357.335 254.665,357.169 297.5,358C 276.282,377.519 254.782,396.685 233,415.5C 211.963,396.293 190.796,377.293 169.5,358.5 Z M 155.5,367.5 C 177.472,386.804 199.138,406.47 220.5,426.5C 199.176,446.323 177.676,465.989 156,485.5C 155.5,446.168 155.333,406.835 155.5,367.5 Z M 310.5,367.5 C 311.665,406.665 311.831,445.998 311,485.5C 289.324,465.989 267.824,446.323 246.5,426.5C 267.854,406.811 289.187,387.145 310.5,367.5 Z M 427.5,412.5 C 450.5,412.5 473.5,412.5 496.5,412.5C 496.5,440.5 496.5,468.5 496.5,496.5C 473.5,496.5 450.5,496.5 427.5,496.5C 427.5,468.5 427.5,440.5 427.5,412.5 Z M 232.5,437.5 C 254.656,456.758 276.656,476.258 298.5,496C 255.167,496.667 211.833,496.667 168.5,496C 190.029,476.634 211.362,457.134 232.5,437.5 Z M 55.5,476.5 C 83.5,476.5 111.5,476.5 139.5,476.5C 139.5,483.167 139.5,489.833 139.5,496.5C 111.5,496.5 83.5,496.5 55.5,496.5C 55.5,489.833 55.5,483.167 55.5,476.5 Z M 327.5,476.5 C 355.5,476.5 383.5,476.5 411.5,476.5C 411.5,483.167 411.5,489.833 411.5,496.5C 383.5,496.5 355.5,496.5 327.5,496.5C 327.5,489.833 327.5,483.167 327.5,476.5 Z"/></g>
<g><path style="opacity:0.925" fill="#bc4824" d="M 226.5,185.5 C 261.824,185.161 281.491,202.495 285.5,237.5C 282.5,269.167 265.167,286.5 233.5,289.5C 201.828,286.494 184.494,269.161 181.5,237.5C 183.709,208.965 198.709,191.632 226.5,185.5 Z M 227.5,201.5 C 209.427,206.414 199.427,218.247 197.5,237C 199.58,258.914 211.58,271.081 233.5,273.5C 255.167,271.167 267.167,259.167 269.5,237.5C 266.285,212.953 252.285,200.953 227.5,201.5 Z"/></g>
</svg>
