<svg width="46" height="42" viewBox="0 0 46 42" fill="none" xmlns="http://www.w3.org/2000/svg">
<path d="M43.3463 39.7501C43.107 38.6135 42.6158 37.3646 41.6383 36.3896C40.4672 35.2218 38.5586 34.4232 35.4699 34.6433V34.6437C35.18 34.6645 34.9173 34.5202 34.7954 34.2985C34.3775 33.6817 29.1731 26.3882 20.4096 32.4343L20.4105 32.4354C20.2083 32.5749 19.9485 32.598 19.729 32.5173C19.1451 32.3435 12.1256 30.396 8.81659 36.3037L8.20058 36.0228L8.81782 36.3052C8.70088 36.5139 8.47194 36.6378 8.23064 36.6475C7.77687 36.6962 3.78472 37.1943 2.41477 39.7497H43.3458L43.3463 39.7501ZM42.6599 35.5548C44.0715 36.9628 44.631 38.7817 44.8344 40.2698C44.841 40.304 44.8443 40.339 44.8443 40.375C44.8443 40.7203 44.5347 41 44.1525 41H1.44534C1.38563 41.0008 1.3251 40.9948 1.26458 40.9811C0.893984 40.897 0.669159 40.5573 0.762217 40.2225L0.763041 40.2229C1.77477 36.5886 6.40266 35.6493 7.75533 35.4503C11.3303 29.4991 18.2299 30.8357 19.8599 31.2505C28.9 25.2334 34.5894 31.7918 35.7753 33.3744C39.1287 33.22 41.2819 34.1806 42.6597 35.5548L42.6599 35.5548Z" fill="#bc4824" stroke="#bc4824" stroke-linejoin="round"/>
<path d="M28.0444 14.9714C40.596 15.946 41.9653 5.04099 42.1108 2.26292C39.0357 2.39424 26.965 3.63195 28.0444 14.9714ZM42.817 1.62483L43.5059 1.62222C43.5063 1.66873 43.8082 17.824 27.3893 16.1668C27.052 16.1568 26.7646 15.925 26.7255 15.6129L27.4127 15.5422L26.7263 15.6107C24.9084 1.20415 41.6402 0.999389 42.7608 1.00225C42.7781 1.00113 42.7953 1.00039 42.8126 1.00001C43.1948 0.997781 43.5065 1.27568 43.5094 1.62054L42.817 1.62483Z" fill="#bc4824" stroke="#bc4824" stroke-linejoin="round"/>
<path d="M22.1182 19.125C5.69896 20.7817 6.00044 4.62708 6.00044 4.58041L6.68933 4.58302L5.99756 4.57855C6.00003 4.23332 6.31216 3.95542 6.69428 3.95803C6.71157 3.95803 6.72887 3.95877 6.74616 3.96026C7.8666 3.9584 24.599 4.16301 22.7806 18.5687L22.0942 18.5002L22.7814 18.5709C22.7419 18.883 22.4549 19.1148 22.1176 19.1249L22.1182 19.125ZM7.39611 5.22041C7.54188 7.9979 8.91143 18.9041 21.4625 17.9289C22.5413 6.58896 10.47 5.35183 7.39611 5.22041Z" fill="#bc4824" stroke="#bc4824" stroke-linejoin="round"/>
<path d="M22.7137 18.2271C22.5466 17.9183 22.134 17.7903 21.7922 17.9414C21.4504 18.0924 21.3088 18.4652 21.476 18.7739C21.4846 18.7896 24.4625 24.2229 24.3439 29.6205C24.3365 29.9642 24.6388 30.2485 25.0197 30.2552C25.4001 30.2619 25.7147 29.9888 25.7221 29.6447C25.8473 23.9443 22.7224 18.2438 22.7138 18.2267L22.7137 18.2271Z" fill="#bc4824" stroke="#bc4824" stroke-linejoin="round"/>
<path d="M27.9254 15.958C28.179 15.7017 28.1548 15.3085 27.8715 15.0789C27.5877 14.8498 27.1525 14.8717 26.8984 15.1277C26.8902 15.1362 23.9592 18.0387 23.5907 24.0778C23.5697 24.4215 23.8612 24.7158 24.2421 24.7344C24.6226 24.7533 24.9483 24.49 24.9689 24.1458C25.3102 18.5447 27.9176 15.9648 27.925 15.9573L27.9254 15.958Z" fill="#bc4824" stroke="#bc4824" stroke-linejoin="round"/>
<path d="M43.3063 2.06743C43.5764 1.82339 43.5764 1.42755 43.3063 1.18352C43.0362 0.939483 42.598 0.939473 42.3279 1.18352L26.9228 15.1015C26.6527 15.3455 26.6527 15.7414 26.9228 15.9854C27.1929 16.2294 27.6311 16.2294 27.9012 15.9854L43.3063 2.06743Z" fill="#bc4824" stroke="#bc4824" stroke-linejoin="round"/>
<path d="M7.15138 4.11922C6.86767 3.88857 6.43119 3.9094 6.17589 4.16572C5.92059 4.42204 5.94366 4.81638 6.22736 5.04704C6.26442 5.07717 19.1173 15.5012 21.5165 18.8402C21.7241 19.1289 22.1511 19.2108 22.4706 19.0233C22.7901 18.8358 22.8807 18.45 22.6732 18.1613C20.1701 14.6766 7.19007 4.15001 7.15212 4.11858L7.15138 4.11922Z" fill="#bc4824" stroke="#bc4824" stroke-linejoin="round"/>
</svg>
