<?xml version="1.0" encoding="UTF-8"?>
<!DOCTYPE svg PUBLIC "-//W3C//DTD SVG 1.1//EN" "http://www.w3.org/Graphics/SVG/1.1/DTD/svg11.dtd">
<svg xmlns="http://www.w3.org/2000/svg" version="1.1" width="178px" height="166px" style="shape-rendering:geometricPrecision; text-rendering:geometricPrecision; image-rendering:optimizeQuality; fill-rule:evenodd; clip-rule:evenodd" xmlns:xlink="http://www.w3.org/1999/xlink">
<g><path style="opacity:0.82" fill="#b3cd89" d="M 91.5,16.5 C 91.5,16.8333 91.5,17.1667 91.5,17.5C 87.7627,18.1996 84.0961,19.1996 80.5,20.5C 83.6199,17.0835 87.2866,15.7502 91.5,16.5 Z"/></g>
<g><path style="opacity:0.176" fill="#d2efbc" d="M 91.5,17.5 C 91.5,17.1667 91.5,16.8333 91.5,16.5C 93.674,16.7497 95.3406,17.7497 96.5,19.5C 94.7162,19.1075 93.0495,18.4408 91.5,17.5 Z"/></g>
<g><path style="opacity:0.267" fill="#d2ebb2" d="M 96.5,19.5 C 99.9922,20.4097 102.992,22.0764 105.5,24.5C 102.052,23.6099 99.0516,21.9432 96.5,19.5 Z"/></g>
<g><path style="opacity:0.098" fill="#e8f5c4" d="M 76.5,22.5 C 75.3406,24.2503 73.674,25.2503 71.5,25.5C 72.6594,23.7497 74.326,22.7497 76.5,22.5 Z"/></g>
<g><path style="opacity:0.114" fill="#e8f7c1" d="M 105.5,24.5 C 107.674,24.7497 109.341,25.7497 110.5,27.5C 108.326,27.2503 106.659,26.2503 105.5,24.5 Z"/></g>
<g><path style="opacity:0.267" fill="#d8f5bf" d="M 69.5,26.5 C 69.0269,27.9063 68.0269,28.573 66.5,28.5C 66.9731,27.0937 67.9731,26.427 69.5,26.5 Z"/></g>
<g><path style="opacity:0.094" fill="#e5f7c2" d="M 110.5,27.5 C 112.027,27.427 113.027,28.0937 113.5,29.5C 111.973,29.573 110.973,28.9063 110.5,27.5 Z"/></g>
<g><path style="opacity:0.137" fill="#daf2be" d="M 66.5,28.5 C 65.3406,30.2503 63.674,31.2503 61.5,31.5C 62.6594,29.7497 64.326,28.7497 66.5,28.5 Z"/></g>
<g><path style="opacity:1" fill="#accd36" d="M 87.5,27.5 C 96.4138,32.026 105.414,36.3594 114.5,40.5C 115.659,42.2503 117.326,43.2503 119.5,43.5C 119.799,45.4553 120.799,46.7886 122.5,47.5C 122.4,50.1085 123.067,52.4418 124.5,54.5C 122.863,56.9233 122.363,59.59 123,62.5C 126.003,62.4748 128.836,63.4748 131.5,65.5C 132.167,65.8333 132.833,66.1667 133.5,66.5C 133.66,68.153 134.326,69.4863 135.5,70.5C 135.833,71.8333 136.167,73.1667 136.5,74.5C 137.03,76.9237 137.864,79.257 139,81.5C 139.5,102.497 139.667,123.497 139.5,144.5C 132.5,144.5 125.5,144.5 118.5,144.5C 118.215,129.464 118.549,114.464 119.5,99.5C 99.8045,98.8457 80.4711,99.5124 61.5,101.5C 60.5041,115.657 60.1707,129.99 60.5,144.5C 53.1667,144.5 45.8333,144.5 38.5,144.5C 38.5,143.167 38.5,141.833 38.5,140.5C 39.3193,119.33 39.9859,97.9962 40.5,76.5C 41.1098,75.609 41.4431,74.609 41.5,73.5C 43.1042,72.713 43.7709,71.3797 43.5,69.5C 45.4077,68.5144 46.4077,66.8477 46.5,64.5C 46.3284,63.5084 46.6618,62.8417 47.5,62.5C 51.3567,59.4619 53.69,55.4619 54.5,50.5C 54.3284,49.5084 54.6618,48.8417 55.5,48.5C 57.0331,46.6452 58.6997,44.8119 60.5,43C 63.3037,41.9924 65.637,40.4924 67.5,38.5C 70.6393,38.4012 72.9726,37.0679 74.5,34.5C 77.6489,34.5848 80.3155,33.5848 82.5,31.5C 83.6935,30.7281 84.6935,29.7281 85.5,28.5C 85.8417,27.6618 86.5084,27.3284 87.5,27.5 Z M 75.5,82.5 C 74.5,82.5 73.5,82.5 72.5,82.5C 72.815,78.6286 72.4816,74.9619 71.5,71.5C 71.5,70.8333 71.5,70.1667 71.5,69.5C 83.0861,68.522 94.7527,68.1887 106.5,68.5C 106.5,72.8333 106.5,77.1667 106.5,81.5C 95.9865,81.1724 85.6532,81.5058 75.5,82.5 Z M 112.5,102.5 C 113.5,102.5 114.5,102.5 115.5,102.5C 115.672,103.492 115.338,104.158 114.5,104.5C 113.833,103.833 113.167,103.167 112.5,102.5 Z"/></g>
<g><path style="opacity:0.251" fill="#d1e7b0" d="M 115.5,30.5 C 119.114,32.3068 122.78,34.1401 126.5,36C 128.635,36.8763 129.969,38.3763 130.5,40.5C 125.291,37.4016 120.291,34.0683 115.5,30.5 Z"/></g>
<g><path style="opacity:0.337" fill="#cceaaf" d="M 59.5,32.5 C 55.5383,35.4884 51.5383,38.4884 47.5,41.5C 47.8588,39.629 48.8588,38.129 50.5,37C 53.4111,35.2389 56.4111,33.7389 59.5,32.5 Z"/></g>
<g><path style="opacity:1" fill="#86b946" d="M 91.5,17.5 C 93.0495,18.4408 94.7162,19.1075 96.5,19.5C 99.0516,21.9432 102.052,23.6099 105.5,24.5C 106.659,26.2503 108.326,27.2503 110.5,27.5C 110.973,28.9063 111.973,29.573 113.5,29.5C 114.492,29.3284 115.158,29.6618 115.5,30.5C 120.291,34.0683 125.291,37.4016 130.5,40.5C 131.338,40.8417 131.672,41.5084 131.5,42.5C 131.427,44.0269 132.094,45.0269 133.5,45.5C 134.674,46.5137 135.34,47.847 135.5,49.5C 135.75,51.674 136.75,53.3406 138.5,54.5C 138.157,56.4832 138.824,57.8166 140.5,58.5C 142.008,60.1815 143.008,62.1815 143.5,64.5C 143.427,66.0269 144.094,67.0269 145.5,67.5C 146.338,67.8417 146.672,68.5084 146.5,69.5C 146.427,71.0269 147.094,72.0269 148.5,72.5C 150.341,74.8485 151.674,77.5152 152.5,80.5C 152.427,82.0269 153.094,83.0269 154.5,83.5C 155.625,84.6522 155.625,85.6522 154.5,86.5C 152.712,86.7852 151.045,86.4519 149.5,85.5C 147.891,81.2601 145.558,77.5935 142.5,74.5C 142.416,71.3183 141.083,68.985 138.5,67.5C 138.5,67.1667 138.5,66.8333 138.5,66.5C 138.573,64.9731 137.906,63.9731 136.5,63.5C 135.326,62.4863 134.66,61.153 134.5,59.5C 133.258,55.3447 131.258,51.678 128.5,48.5C 127.326,47.4863 126.66,46.153 126.5,44.5C 126.5,42.5 125.5,41.5 123.5,41.5C 123.027,40.0937 122.027,39.427 120.5,39.5C 118.181,39.0075 116.181,38.0075 114.5,36.5C 114.027,35.0937 113.027,34.427 111.5,34.5C 110.508,34.6716 109.842,34.3382 109.5,33.5C 109.027,32.0937 108.027,31.427 106.5,31.5C 105.508,31.6716 104.842,31.3382 104.5,30.5C 104.027,29.0937 103.027,28.427 101.5,28.5C 98.5152,27.6743 95.8485,26.341 93.5,24.5C 93.0269,23.0937 92.0269,22.427 90.5,22.5C 88.8716,21.1472 87.5383,21.4805 86.5,23.5C 86.1583,24.3382 85.4916,24.6716 84.5,24.5C 81.6689,25.0787 79.3356,26.412 77.5,28.5C 76.1007,29.8897 74.4341,30.8897 72.5,31.5C 69.6689,32.0787 67.3356,33.412 65.5,35.5C 64.3406,37.2503 62.674,38.2503 60.5,38.5C 58.326,38.7497 56.6594,39.7497 55.5,41.5C 52.4384,42.2678 50.7717,44.2678 50.5,47.5C 50.6716,48.4916 50.3382,49.1583 49.5,49.5C 47.412,51.3356 46.0787,53.6689 45.5,56.5C 43.8958,57.287 43.2291,58.6203 43.5,60.5C 41.412,62.3356 40.0787,64.6689 39.5,67.5C 37.8958,68.287 37.2291,69.6203 37.5,71.5C 37.3404,73.153 36.6737,74.4863 35.5,75.5C 33.3311,77.3403 31.9977,79.6737 31.5,82.5C 29.8235,83.1834 29.1568,84.5168 29.5,86.5C 27.8333,86.5 26.1667,86.5 24.5,86.5C 23.1153,83.7151 23.782,81.3817 26.5,79.5C 28.2503,78.3406 29.2503,76.674 29.5,74.5C 31.1042,73.713 31.7709,72.3797 31.5,70.5C 32.9063,70.0269 33.573,69.0269 33.5,67.5C 33.3284,66.5084 33.6618,65.8417 34.5,65.5C 36.1765,64.8166 36.8432,63.4832 36.5,61.5C 38.1765,60.8166 38.8432,59.4832 38.5,57.5C 39.9063,57.0269 40.573,56.0269 40.5,54.5C 40.9925,52.1815 41.9925,50.1815 43.5,48.5C 44.9063,48.0269 45.573,47.0269 45.5,45.5C 45.6596,43.847 46.3263,42.5137 47.5,41.5C 51.5383,38.4884 55.5383,35.4884 59.5,32.5C 59.8417,31.6618 60.5084,31.3284 61.5,31.5C 63.674,31.2503 65.3406,30.2503 66.5,28.5C 68.0269,28.573 69.0269,27.9063 69.5,26.5C 69.8417,25.6618 70.5084,25.3284 71.5,25.5C 73.674,25.2503 75.3406,24.2503 76.5,22.5C 77.5137,21.3263 78.847,20.6596 80.5,20.5C 84.0961,19.1996 87.7627,18.1996 91.5,17.5 Z M 75.5,82.5 C 74.5,82.5 73.5,82.5 72.5,82.5C 72.815,78.6286 72.4816,74.9619 71.5,71.5C 71.5,70.8333 71.5,70.1667 71.5,69.5C 83.0861,68.522 94.7527,68.1887 106.5,68.5C 106.5,72.8333 106.5,77.1667 106.5,81.5C 95.9865,81.1724 85.6532,81.5058 75.5,82.5 Z"/></g>
<g><path style="opacity:0.325" fill="#dbeaa6" d="M 74.5,34.5 C 72.9726,37.0679 70.6393,38.4012 67.5,38.5C 69.3356,36.412 71.6689,35.0787 74.5,34.5 Z"/></g>
<g><path style="opacity:0.165" fill="#cee8b5" d="M 111.5,34.5 C 113.027,34.427 114.027,35.0937 114.5,36.5C 112.973,36.573 111.973,35.9063 111.5,34.5 Z"/></g>
<g><path style="opacity:0.282" fill="#dfeeae" d="M 87.5,27.5 C 88.6009,26.4017 89.9343,26.235 91.5,27C 99.5263,31.0086 107.193,35.5086 114.5,40.5C 105.414,36.3594 96.4138,32.026 87.5,27.5 Z"/></g>
<g><path style="opacity:0.8" fill="#cade8b" d="M 80.5,31.5 C 81.1667,31.5 81.8333,31.5 82.5,31.5C 80.3155,33.5848 77.6489,34.5848 74.5,34.5C 76.1815,32.9925 78.1815,31.9925 80.5,31.5 Z"/></g>
<g><path style="opacity:0.192" fill="#d1e6ad" d="M 106.5,31.5 C 108.027,31.427 109.027,32.0937 109.5,33.5C 107.973,33.573 106.973,32.9063 106.5,31.5 Z"/></g>
<g><path style="opacity:0.141" fill="#d3e9b2" d="M 72.5,31.5 C 70.6644,33.588 68.3311,34.9213 65.5,35.5C 67.3356,33.412 69.6689,32.0787 72.5,31.5 Z"/></g>
<g><path style="opacity:0.169" fill="#eaf5b7" d="M 85.5,28.5 C 84.6935,29.7281 83.6935,30.7281 82.5,31.5C 81.8333,31.5 81.1667,31.5 80.5,31.5C 81.6594,29.7497 83.326,28.7497 85.5,28.5 Z"/></g>
<g><path style="opacity:0.42" fill="#c2dfa4" d="M 101.5,28.5 C 103.027,28.427 104.027,29.0937 104.5,30.5C 102.973,30.573 101.973,29.9063 101.5,28.5 Z"/></g>
<g><path style="opacity:0.098" fill="#d8f0bb" d="M 84.5,24.5 C 82.6644,26.588 80.3311,27.9213 77.5,28.5C 79.3356,26.412 81.6689,25.0787 84.5,24.5 Z"/></g>
<g><path style="opacity:0.145" fill="#e1f1bd" d="M 90.5,22.5 C 92.0269,22.427 93.0269,23.0937 93.5,24.5C 91.9731,24.573 90.9731,23.9063 90.5,22.5 Z"/></g>
<g><path style="opacity:0.035" fill="#daf5c2" d="M 90.5,22.5 C 89.1667,22.8333 87.8333,23.1667 86.5,23.5C 87.5383,21.4805 88.8716,21.1472 90.5,22.5 Z"/></g>
<g><path style="opacity:0.176" fill="#d0eaad" d="M 60.5,38.5 C 59.3406,40.2503 57.674,41.2503 55.5,41.5C 56.6594,39.7497 58.326,38.7497 60.5,38.5 Z"/></g>
<g><path style="opacity:0.235" fill="#c0daa6" d="M 120.5,39.5 C 122.027,39.427 123.027,40.0937 123.5,41.5C 121.973,41.573 120.973,40.9063 120.5,39.5 Z"/></g>
<g><path style="opacity:0.176" fill="#e4f5b4" d="M 114.5,40.5 C 116.674,40.7497 118.341,41.7497 119.5,43.5C 117.326,43.2503 115.659,42.2503 114.5,40.5 Z"/></g>
<g><path style="opacity:0.263" fill="#e0f1ae" d="M 67.5,38.5 C 65.637,40.4924 63.3037,41.9924 60.5,43C 58.6997,44.8119 57.0331,46.6452 55.5,48.5C 55.933,45.8045 57.2663,43.6379 59.5,42C 62.0639,40.6039 64.7305,39.4373 67.5,38.5 Z"/></g>
<g><path style="opacity:0.361" fill="#bfe6a5" d="M 123.5,41.5 C 125.5,41.5 126.5,42.5 126.5,44.5C 125.167,43.8333 124.167,42.8333 123.5,41.5 Z"/></g>
<g><path style="opacity:0.02" fill="#def3c4" d="M 55.5,41.5 C 53.823,43.5398 52.1563,45.5398 50.5,47.5C 50.7717,44.2678 52.4384,42.2678 55.5,41.5 Z"/></g>
<g><path style="opacity:0.227" fill="#d1edb0" d="M 131.5,42.5 C 132.906,42.9731 133.573,43.9731 133.5,45.5C 132.094,45.0269 131.427,44.0269 131.5,42.5 Z"/></g>
<g><path style="opacity:0.404" fill="#ccdda5" d="M 45.5,45.5 C 45.573,47.0269 44.9063,48.0269 43.5,48.5C 43.427,46.9731 44.0937,45.9731 45.5,45.5 Z"/></g>
<g><path style="opacity:0.784" fill="#d0e390" d="M 119.5,43.5 C 121.446,44.0347 122.446,45.368 122.5,47.5C 120.799,46.7886 119.799,45.4553 119.5,43.5 Z"/></g>
<g><path style="opacity:0.839" fill="#cee08a" d="M 122.5,47.5 C 124.588,49.3356 125.921,51.6689 126.5,54.5C 125.833,54.5 125.167,54.5 124.5,54.5C 123.067,52.4418 122.4,50.1085 122.5,47.5 Z"/></g>
<g><path style="opacity:0.165" fill="#d6ecb1" d="M 49.5,49.5 C 48.9213,52.3311 47.588,54.6644 45.5,56.5C 46.0787,53.6689 47.412,51.3356 49.5,49.5 Z"/></g>
<g><path style="opacity:0.153" fill="#d7efb8" d="M 135.5,49.5 C 137.25,50.6594 138.25,52.326 138.5,54.5C 136.75,53.3406 135.75,51.674 135.5,49.5 Z"/></g>
<g><path style="opacity:0.224" fill="#d4e9b3" d="M 128.5,48.5 C 131.258,51.678 133.258,55.3447 134.5,59.5C 131.742,56.322 129.742,52.6553 128.5,48.5 Z"/></g>
<g><path style="opacity:0.698" fill="#d3e699" d="M 54.5,50.5 C 53.69,55.4619 51.3567,59.4619 47.5,62.5C 49.332,58.1638 51.6654,54.1638 54.5,50.5 Z"/></g>
<g><path style="opacity:0.999" fill="#adce46" d="M 124.5,54.5 C 125.167,54.5 125.833,54.5 126.5,54.5C 126.427,56.0269 127.094,57.0269 128.5,57.5C 128.157,59.4832 128.824,60.8166 130.5,61.5C 131.338,61.8417 131.672,62.5084 131.5,63.5C 131.5,64.1667 131.5,64.8333 131.5,65.5C 128.836,63.4748 126.003,62.4748 123,62.5C 122.363,59.59 122.863,56.9233 124.5,54.5 Z"/></g>
<g><path style="opacity:0.169" fill="#d1eab4" d="M 40.5,54.5 C 40.573,56.0269 39.9063,57.0269 38.5,57.5C 38.427,55.9731 39.0937,54.9731 40.5,54.5 Z"/></g>
<g><path style="opacity:0.133" fill="#e3f2bf" d="M 126.5,54.5 C 127.906,54.9731 128.573,55.9731 128.5,57.5C 127.094,57.0269 126.427,56.0269 126.5,54.5 Z"/></g>
<g><path style="opacity:0.729" fill="#b9d68d" d="M 138.5,54.5 C 139.674,55.5137 140.34,56.847 140.5,58.5C 138.824,57.8166 138.157,56.4832 138.5,54.5 Z"/></g>
<g><path style="opacity:0.251" fill="#cae49f" d="M 45.5,56.5 C 45.3404,58.153 44.6737,59.4863 43.5,60.5C 43.2291,58.6203 43.8958,57.287 45.5,56.5 Z"/></g>
<g><path style="opacity:0.745" fill="#b8d38d" d="M 38.5,57.5 C 38.8432,59.4832 38.1765,60.8166 36.5,61.5C 36.6596,59.847 37.3263,58.5137 38.5,57.5 Z"/></g>
<g><path style="opacity:0.706" fill="#cee495" d="M 128.5,57.5 C 129.674,58.5137 130.34,59.847 130.5,61.5C 128.824,60.8166 128.157,59.4832 128.5,57.5 Z"/></g>
<g><path style="opacity:0.149" fill="#ceebb4" d="M 43.5,60.5 C 42.9213,63.3311 41.588,65.6644 39.5,67.5C 40.0787,64.6689 41.412,62.3356 43.5,60.5 Z"/></g>
<g><path style="opacity:0.796" fill="#abc981" d="M 36.5,61.5 C 36.8432,63.4832 36.1765,64.8166 34.5,65.5C 34.6596,63.847 35.3263,62.5137 36.5,61.5 Z"/></g>
<g><path style="opacity:0.161" fill="#e7f1c0" d="M 131.5,63.5 C 132.906,63.9731 133.573,64.9731 133.5,66.5C 132.833,66.1667 132.167,65.8333 131.5,65.5C 131.5,64.8333 131.5,64.1667 131.5,63.5 Z"/></g>
<g><path style="opacity:0.145" fill="#dae8b9" d="M 136.5,63.5 C 137.906,63.9731 138.573,64.9731 138.5,66.5C 137.094,66.0269 136.427,65.0269 136.5,63.5 Z"/></g>
<g><path style="opacity:0.204" fill="#d6edb4" d="M 143.5,64.5 C 144.906,64.9731 145.573,65.9731 145.5,67.5C 144.094,67.0269 143.427,66.0269 143.5,64.5 Z"/></g>
<g><path style="opacity:0.028" fill="#fbfeeb" d="M 71.5,67.5 C 83.5,67.5 95.5,67.5 107.5,67.5C 107.5,72.5 107.5,77.5 107.5,82.5C 96.8333,82.5 86.1667,82.5 75.5,82.5C 85.6532,81.5058 95.9865,81.1724 106.5,81.5C 106.5,77.1667 106.5,72.8333 106.5,68.5C 94.7527,68.1887 83.0861,68.522 71.5,69.5C 71.5,68.8333 71.5,68.1667 71.5,67.5 Z"/></g>
<g><path style="opacity:0.631" fill="#c2e1a2" d="M 138.5,67.5 C 141.083,68.985 142.416,71.3183 142.5,74.5C 140.929,72.3649 139.596,70.0316 138.5,67.5 Z"/></g>
<g><path style="opacity:0.761" fill="#d7e99b" d="M 46.5,64.5 C 46.4077,66.8477 45.4077,68.5144 43.5,69.5C 43.7497,67.326 44.7497,65.6594 46.5,64.5 Z"/></g>
<g><path style="opacity:0.098" fill="#ecf8c5" d="M 133.5,66.5 C 135.104,67.287 135.771,68.6203 135.5,70.5C 134.326,69.4863 133.66,68.153 133.5,66.5 Z"/></g>
<g><path style="opacity:0.22" fill="#c9e6ad" d="M 33.5,67.5 C 33.573,69.0269 32.9063,70.0269 31.5,70.5C 31.427,68.9731 32.0937,67.9731 33.5,67.5 Z"/></g>
<g><path style="opacity:0.231" fill="#c2e19f" d="M 39.5,67.5 C 39.3404,69.153 38.6737,70.4863 37.5,71.5C 37.2291,69.6203 37.8958,68.287 39.5,67.5 Z"/></g>
<g><path style="opacity:0.298" fill="#dcf0c2" d="M 146.5,69.5 C 147.906,69.9731 148.573,70.9731 148.5,72.5C 147.094,72.0269 146.427,71.0269 146.5,69.5 Z"/></g>
<g><path style="opacity:0.275" fill="#e1edab" d="M 43.5,69.5 C 43.7709,71.3797 43.1042,72.713 41.5,73.5C 41.6596,71.847 42.3263,70.5137 43.5,69.5 Z"/></g>
<g><path style="opacity:0.196" fill="#e7f5b8" d="M 135.5,70.5 C 137.25,71.6594 138.25,73.326 138.5,75.5C 137.833,75.1667 137.167,74.8333 136.5,74.5C 136.167,73.1667 135.833,71.8333 135.5,70.5 Z"/></g>
<g><path style="opacity:0.341" fill="#cfdea2" d="M 31.5,70.5 C 31.7709,72.3797 31.1042,73.713 29.5,74.5C 29.6596,72.847 30.3263,71.5137 31.5,70.5 Z"/></g>
<g><path style="opacity:0.333" fill="#dfedb8" d="M 41.5,73.5 C 41.4431,74.609 41.1098,75.609 40.5,76.5C 40.1667,76.5 39.8333,76.5 39.5,76.5C 39.427,74.9731 40.0937,73.9731 41.5,73.5 Z"/></g>
<g><path style="opacity:0.2" fill="#ccedae" d="M 29.5,74.5 C 29.2503,76.674 28.2503,78.3406 26.5,79.5C 26.7497,77.326 27.7497,75.6594 29.5,74.5 Z"/></g>
<g><path style="opacity:0.145" fill="#caedb3" d="M 35.5,75.5 C 34.9213,78.3311 33.588,80.6644 31.5,82.5C 31.9977,79.6737 33.3311,77.3403 35.5,75.5 Z"/></g>
<g><path style="opacity:0.243" fill="#d5eab5" d="M 142.5,74.5 C 145.558,77.5935 147.891,81.2601 149.5,85.5C 151.045,86.4519 152.712,86.7852 154.5,86.5C 153.341,88.3769 151.674,88.8769 149.5,88C 146.688,83.7148 144.354,79.2148 142.5,74.5 Z"/></g>
<g><path style="opacity:0.479" fill="#f5fecd" d="M 71.5,71.5 C 72.4816,74.9619 72.815,78.6286 72.5,82.5C 73.5,82.5 74.5,82.5 75.5,82.5C 86.1667,82.5 96.8333,82.5 107.5,82.5C 107.5,82.8333 107.5,83.1667 107.5,83.5C 95.5,83.5 83.5,83.5 71.5,83.5C 71.5,79.5 71.5,75.5 71.5,71.5 Z"/></g>
<g><path style="opacity:0.145" fill="#e2f1ca" d="M 152.5,80.5 C 153.906,80.9731 154.573,81.9731 154.5,83.5C 153.094,83.0269 152.427,82.0269 152.5,80.5 Z"/></g>
<g><path style="opacity:0.471" fill="#c0da9b" d="M 31.5,82.5 C 31.3404,84.153 30.6737,85.4863 29.5,86.5C 29.1568,84.5168 29.8235,83.1834 31.5,82.5 Z"/></g>
<g><path style="opacity:1" fill="#b9cf63" d="M 71.5,67.5 C 71.5,68.1667 71.5,68.8333 71.5,69.5C 71.5,70.1667 71.5,70.8333 71.5,71.5C 71.5,75.5 71.5,79.5 71.5,83.5C 83.5,83.5 95.5,83.5 107.5,83.5C 95.2989,85.1749 82.7989,86.1749 70,86.5C 70.093,80.0613 70.593,73.728 71.5,67.5 Z"/></g>
<g><path style="opacity:0.357" fill="#c6d7af" d="M 24.5,86.5 C 26.1667,86.5 27.8333,86.5 29.5,86.5C 27.9522,88.9224 26.2855,88.9224 24.5,86.5 Z"/></g>
<g><path style="opacity:0.952" fill="#b2cd52" d="M 39.5,76.5 C 39.8333,76.5 40.1667,76.5 40.5,76.5C 39.9859,97.9962 39.3193,119.33 38.5,140.5C 38.5,119.833 38.5,99.1667 38.5,78.5C 38.3284,77.5084 38.6618,76.8417 39.5,76.5 Z"/></g>
<g><path style="opacity:0.843" fill="#bbd55e" d="M 136.5,74.5 C 137.167,74.8333 137.833,75.1667 138.5,75.5C 138.312,77.1033 138.812,78.4366 140,79.5C 140.5,101.164 140.667,122.831 140.5,144.5C 140.167,144.5 139.833,144.5 139.5,144.5C 139.667,123.497 139.5,102.497 139,81.5C 137.864,79.257 137.03,76.9237 136.5,74.5 Z"/></g>
<g><path style="opacity:0.17" fill="#f2fed2" d="M 138.5,75.5 C 139.315,76.4293 140.148,77.4293 141,78.5C 141.83,101.004 141.663,123.337 140.5,145.5C 140.5,145.167 140.5,144.833 140.5,144.5C 140.667,122.831 140.5,101.164 140,79.5C 138.812,78.4366 138.312,77.1033 138.5,75.5 Z"/></g>
<g><path style="opacity:0.991" fill="#b0cd51" d="M 118.5,144.5 C 117.504,130.343 117.171,116.01 117.5,101.5C 98.8333,101.5 80.1667,101.5 61.5,101.5C 80.4711,99.5124 99.8045,98.8457 119.5,99.5C 118.549,114.464 118.215,129.464 118.5,144.5 Z"/></g>
<g><path style="opacity:0.309" fill="#e3f2b5" d="M 61.5,101.5 C 80.1667,101.5 98.8333,101.5 117.5,101.5C 117.171,116.01 117.504,130.343 118.5,144.5C 125.5,144.5 132.5,144.5 139.5,144.5C 139.833,144.5 140.167,144.5 140.5,144.5C 140.5,144.833 140.5,145.167 140.5,145.5C 133.569,145.306 126.569,145.64 119.5,146.5C 117.45,145.923 116.45,144.59 116.5,142.5C 116.829,128.99 116.496,115.656 115.5,102.5C 114.5,102.5 113.5,102.5 112.5,102.5C 102.833,102.5 93.1667,102.5 83.5,102.5C 77.642,102.178 71.9753,102.511 66.5,103.5C 66.1667,103.5 65.8333,103.5 65.5,103.5C 64.791,102.596 63.791,102.263 62.5,102.5C 62.8291,116.677 62.4958,130.677 61.5,144.5C 61.1667,144.5 60.8333,144.5 60.5,144.5C 60.1707,129.99 60.5041,115.657 61.5,101.5 Z M 112.5,102.5 C 113.5,102.5 114.5,102.5 115.5,102.5C 115.672,103.492 115.338,104.158 114.5,104.5C 113.833,103.833 113.167,103.167 112.5,102.5 Z"/></g>
<g><path style="opacity:0.346" fill="#e1f4c8" d="M 83.5,102.5 C 93.1667,102.5 102.833,102.5 112.5,102.5C 113.167,103.167 113.833,103.833 114.5,104.5C 114.167,104.5 113.833,104.5 113.5,104.5C 97.1667,104.5 80.8333,104.5 64.5,104.5C 64.5,103.833 64.8333,103.5 65.5,103.5C 65.8333,103.5 66.1667,103.5 66.5,103.5C 72.358,103.822 78.0247,103.489 83.5,102.5 Z"/></g>
<g><path style="opacity:0.714" fill="#a7ca7c" d="M 64.5,104.5 C 80.8333,104.5 97.1667,104.5 113.5,104.5C 113.5,104.833 113.5,105.167 113.5,105.5C 97.5,105.5 81.5,105.5 65.5,105.5C 65.5,118.5 65.5,131.5 65.5,144.5C 65.1667,144.5 64.8333,144.5 64.5,144.5C 63.1667,131.167 63.1667,117.833 64.5,104.5 Z"/></g>
<g><path style="opacity:1" fill="#77b52d" d="M 113.5,105.5 C 113.5,118.5 113.5,131.5 113.5,144.5C 97.5,144.5 81.5,144.5 65.5,144.5C 65.5,131.5 65.5,118.5 65.5,105.5C 81.5,105.5 97.5,105.5 113.5,105.5 Z"/></g>
<g><path style="opacity:0.468" fill="#e5f2be" d="M 38.5,78.5 C 38.5,99.1667 38.5,119.833 38.5,140.5C 38.5,141.833 38.5,143.167 38.5,144.5C 38.1667,144.5 37.8333,144.5 37.5,144.5C 36.3374,124.337 36.1708,104.004 37,83.5C 37.1981,81.6183 37.6981,79.9516 38.5,78.5 Z"/></g>
<g><path style="opacity:0.073" fill="#f3ffdf" d="M 115.5,102.5 C 116.496,115.656 116.829,128.99 116.5,142.5C 115.833,143.167 115.167,143.833 114.5,144.5C 114.5,131.167 114.5,117.833 114.5,104.5C 115.338,104.158 115.672,103.492 115.5,102.5 Z"/></g>
<g><path style="opacity:0.329" fill="#e2efb5" d="M 37.5,144.5 C 37.8333,144.5 38.1667,144.5 38.5,144.5C 45.8333,144.5 53.1667,144.5 60.5,144.5C 60.8333,144.5 61.1667,144.5 61.5,144.5C 55.6306,145.205 49.6306,145.871 43.5,146.5C 42.4016,145.385 41.2349,145.385 40,146.5C 38.699,146.361 37.8656,145.695 37.5,144.5 Z"/></g>
<g><path style="opacity:0.386" fill="#c6e0a7" d="M 113.5,104.5 C 113.833,104.5 114.167,104.5 114.5,104.5C 114.5,117.833 114.5,131.167 114.5,144.5C 113.228,145.434 111.728,146.101 110,146.5C 99.5192,146.245 89.0192,146.245 78.5,146.5C 73.6763,145.94 69.0097,145.273 64.5,144.5C 64.8333,144.5 65.1667,144.5 65.5,144.5C 81.5,144.5 97.5,144.5 113.5,144.5C 113.5,131.5 113.5,118.5 113.5,105.5C 113.5,105.167 113.5,104.833 113.5,104.5 Z"/></g>
</svg>
