<?xml version="1.0" encoding="UTF-8"?>
<!DOCTYPE svg PUBLIC "-//W3C//DTD SVG 1.1//EN" "http://www.w3.org/Graphics/SVG/1.1/DTD/svg11.dtd">
<svg xmlns="http://www.w3.org/2000/svg" version="1.1" width="457px" height="474px" style="shape-rendering:geometricPrecision; text-rendering:geometricPrecision; image-rendering:optimizeQuality; fill-rule:evenodd; clip-rule:evenodd" xmlns:xlink="http://www.w3.org/1999/xlink">
<g><path style="opacity:1" fill="#f7f9fa" d="M -0.5,-0.5 C 151.833,-0.5 304.167,-0.5 456.5,-0.5C 456.5,157.5 456.5,315.5 456.5,473.5C 304.167,473.5 151.833,473.5 -0.5,473.5C -0.5,315.5 -0.5,157.5 -0.5,-0.5 Z"/></g>
<g><path style="opacity:1" fill="#030303" d="M 411.5,421.5 C 411.5,425.167 411.5,428.833 411.5,432.5C 326.665,432.167 241.998,432.501 157.5,433.5C 123.165,433.667 88.8317,433.5 54.5,433C 38.2537,427.012 32.0871,415.512 36,398.5C 39.4052,392.121 42.9052,385.788 46.5,379.5C 54.569,373.932 61.069,366.932 66,358.5C 71.1734,352.664 77.6734,349.664 85.5,349.5C 92.3335,350.767 99.1668,352.1 106,353.5C 110.113,352.197 114.28,351.03 118.5,350C 122.225,349.24 125.892,349.407 129.5,350.5C 130.499,334.18 130.833,317.847 130.5,301.5C 101.947,306.927 78.114,298.927 59,277.5C 48.6167,262.759 44.7834,246.425 47.5,228.5C 61.7862,230.881 76.1196,233.047 90.5,235C 95.7198,235.809 100.72,237.309 105.5,239.5C 105.538,220.559 110.705,203.226 121,187.5C 125.933,179.954 131.1,172.621 136.5,165.5C 146.501,178.156 155.001,191.823 162,206.5C 165.508,217.22 167.008,228.22 166.5,239.5C 164.771,243.64 164.438,247.973 165.5,252.5C 166.107,252.376 166.44,252.043 166.5,251.5C 170.954,249.439 175.621,247.939 180.5,247C 195.834,244.723 211.168,242.556 226.5,240.5C 229.286,271.105 217.286,293.605 190.5,308C 186.317,309.796 181.984,311.129 177.5,312C 165.873,313.301 154.206,313.801 142.5,313.5C 142.333,327.171 142.5,340.837 143,354.5C 144.413,356.414 146.247,357.747 148.5,358.5C 160.756,347.419 173.756,346.586 187.5,356C 196.833,365.333 206.167,374.667 215.5,384C 219.406,385.434 223.406,385.767 227.5,385C 232.649,380.515 238.316,376.848 244.5,374C 250.491,373.501 256.491,373.334 262.5,373.5C 262.018,347.411 262.518,321.411 264,295.5C 265.873,293.291 268.04,291.458 270.5,290C 283.829,289.5 297.163,289.333 310.5,289.5C 310.833,244.495 310.5,199.495 309.5,154.5C 288.841,141.635 277.341,122.968 275,98.5C 274.333,88.8333 274.333,79.1667 275,69.5C 276.833,66.3333 279.333,63.8333 282.5,62C 316.5,61.3333 350.5,61.3333 384.5,62C 388.843,63.0095 392.01,65.5095 394,69.5C 399.247,99.0265 391.747,124.527 371.5,146C 367.676,149.079 363.676,151.912 359.5,154.5C 358.5,199.495 358.167,244.495 358.5,289.5C 371.171,289.333 383.838,289.5 396.5,290C 400.843,291.01 404.01,293.51 406,297.5C 406.667,324.167 406.667,350.833 406,377.5C 404.43,393.552 398.93,408.052 389.5,421C 396.826,421.5 404.159,421.666 411.5,421.5 Z"/></g>
<g><path style="opacity:1" fill="#f7fafa" d="M 286.5,73.5 C 318.5,73.5 350.5,73.5 382.5,73.5C 382.5,77.5 382.5,81.5 382.5,85.5C 350.5,85.5 318.5,85.5 286.5,85.5C 286.5,81.5 286.5,77.5 286.5,73.5 Z"/></g>
<g><path style="opacity:1" fill="#f6f8f9" d="M 287.5,97.5 C 318.833,97.5 350.167,97.5 381.5,97.5C 380.343,115.146 372.843,129.48 359,140.5C 358.595,130.856 353.762,124.689 344.5,122C 337.5,121.333 330.5,121.333 323.5,122C 314.981,125.196 310.481,131.363 310,140.5C 296.157,129.48 288.657,115.146 287.5,97.5 Z"/></g>
<g><path style="opacity:1" fill="#f7f9fa" d="M 325.5,133.5 C 331.176,133.334 336.843,133.501 342.5,134C 343.931,134.465 345.097,135.299 346,136.5C 346.5,183.499 346.667,230.499 346.5,277.5C 338.5,277.5 330.5,277.5 322.5,277.5C 322.333,230.499 322.5,183.499 323,136.5C 324.045,135.627 324.878,134.627 325.5,133.5 Z"/></g>
<g><path style="opacity:1" fill="#f2f4f5" d="M 135.5,186.5 C 153.105,205.203 158.605,227.203 152,252.5C 150.06,259.047 147.06,265.047 143,270.5C 142.5,254.837 142.333,239.17 142.5,223.5C 138.5,223.5 134.5,223.5 130.5,223.5C 130.667,239.503 130.5,255.503 130,271.5C 117.846,251.635 115.513,230.635 123,208.5C 126.937,200.949 131.104,193.616 135.5,186.5 Z"/></g>
<g><path style="opacity:1" fill="#f3f5f6" d="M 65.5,243.5 C 74.8341,244.953 84.1674,246.453 93.5,248C 98.9869,249.078 103.987,251.244 108.5,254.5C 110.647,258.729 112.647,263.062 114.5,267.5C 114.167,267.833 113.833,268.167 113.5,268.5C 108.446,265.306 103.112,262.639 97.5,260.5C 95.4436,263.445 93.777,266.612 92.5,270C 103.114,275.31 113.114,281.643 122.5,289C 94.5261,293.764 74.3594,283.597 62,258.5C 60.6905,254.93 59.8572,251.263 59.5,247.5C 59.5,246.167 59.5,244.833 59.5,243.5C 61.5,243.5 63.5,243.5 65.5,243.5 Z"/></g>
<g><path style="opacity:1" fill="#969798" d="M 65.5,243.5 C 63.5,243.5 61.5,243.5 59.5,243.5C 59.5,244.833 59.5,246.167 59.5,247.5C 58.5489,246.081 58.2155,244.415 58.5,242.5C 61.0593,242.198 63.3926,242.532 65.5,243.5 Z"/></g>
<g><path style="opacity:1" fill="#a2a4a4" d="M 166.5,239.5 C 166.115,243.707 166.115,247.707 166.5,251.5C 166.44,252.043 166.107,252.376 165.5,252.5C 164.438,247.973 164.771,243.64 166.5,239.5 Z"/></g>
<g><path style="opacity:1" fill="#f1f3f4" d="M 206.5,254.5 C 209.167,254.5 211.833,254.5 214.5,254.5C 212.618,275.122 202.284,289.622 183.5,298C 172.718,301.223 161.718,302.223 150.5,301C 159.886,293.643 169.886,287.31 180.5,282C 179.254,278.32 177.42,275.153 175,272.5C 164.98,276.425 155.813,281.758 147.5,288.5C 150.171,279.785 155.504,272.618 163.5,267C 167.007,264.746 170.673,262.746 174.5,261C 185.227,258.507 195.893,256.34 206.5,254.5 Z"/></g>
<g><path style="opacity:1" fill="#f5f7f8" d="M 322.5,289.5 C 330.5,289.5 338.5,289.5 346.5,289.5C 347.219,305.52 344.386,320.853 338,335.5C 335.667,338.167 333.333,338.167 331,335.5C 324.43,320.884 321.596,305.551 322.5,289.5 Z"/></g>
<g><path style="opacity:1" fill="#f6f8f9" d="M 274.5,301.5 C 286.5,301.5 298.5,301.5 310.5,301.5C 311.169,314.007 314.002,326.007 319,337.5C 322.844,347.839 330.01,351.339 340.5,348C 343.102,347.117 345.269,345.617 347,343.5C 353.584,330.25 357.417,316.25 358.5,301.5C 370.5,301.5 382.5,301.5 394.5,301.5C 394.929,329.53 394.429,357.53 393,385.5C 389.855,398.955 383.688,410.788 374.5,421C 368.141,421.831 361.807,421.664 355.5,420.5C 353.066,412.465 348.732,405.632 342.5,400C 337.65,398.268 332.65,397.268 327.5,397C 325.113,392.947 321.78,389.947 317.5,388C 308.91,386.171 300.243,384.838 291.5,384C 286.381,379.776 280.715,376.609 274.5,374.5C 274.5,350.167 274.5,325.833 274.5,301.5 Z"/></g>
<g><path style="opacity:1" fill="#f4f6f7" d="M 81.5,361.5 C 86.3509,361.37 91.0175,362.204 95.5,364C 93.8333,365.667 92.1667,367.333 90.5,369C 93.3497,371.682 96.0164,374.516 98.5,377.5C 103.726,372.104 109.392,367.271 115.5,363C 123.594,360.637 131.26,361.637 138.5,366C 144.333,371.833 150.167,377.667 156,383.5C 158.833,380.667 161.667,377.833 164.5,375C 154.875,367.511 156.375,363.011 169,361.5C 172.269,361.923 175.436,362.756 178.5,364C 189.23,375.399 200.563,386.066 212.5,396C 218.103,397.124 223.769,397.79 229.5,398C 233.066,398.7 235.9,400.533 238,403.5C 240.833,409.167 243.667,414.833 246.5,420.5C 182.836,421.667 119.169,421.833 55.5,421C 49.6171,418.717 46.6171,414.384 46.5,408C 48.3494,400.796 51.1828,393.962 55,387.5C 55.7504,386.874 56.5838,386.374 57.5,386C 63.8246,385.5 70.1579,385.334 76.5,385.5C 76.5,381.5 76.5,377.5 76.5,373.5C 74.1432,373.663 71.8098,373.497 69.5,373C 72.7513,368.274 76.7513,364.441 81.5,361.5 Z"/></g>
<g><path style="opacity:1" fill="#040404" d="M 106.5,385.5 C 122.867,381.582 136.201,386.082 146.5,399C 143.667,401.833 140.833,404.667 138,407.5C 134.799,403.964 131.299,400.797 127.5,398C 120.508,397.5 113.508,397.334 106.5,397.5C 106.5,393.5 106.5,389.5 106.5,385.5 Z"/></g>
<g><path style="opacity:1" fill="#f4f6f7" d="M 246.5,385.5 C 254.84,385.334 263.173,385.5 271.5,386C 277.628,388.563 283.295,391.897 288.5,396C 295.437,397.173 302.437,397.84 309.5,398C 311.246,398.471 312.913,399.138 314.5,400C 308.282,405.595 303.949,412.428 301.5,420.5C 287.5,421.833 273.5,421.833 259.5,420.5C 255.295,409.084 249.295,398.751 241.5,389.5C 243.21,388.113 244.877,386.779 246.5,385.5 Z"/></g>
<g><path style="opacity:1" fill="#0a0a0a" d="M 179.5,387.5 C 182.48,390.144 185.48,392.811 188.5,395.5C 184.833,399.833 180.833,403.833 176.5,407.5C 174.016,404.516 171.35,401.682 168.5,399C 172.37,395.298 176.037,391.464 179.5,387.5 Z"/></g>
<g><path style="opacity:1" fill="#0a0a0a" d="M 89.5,393.5 C 92.4802,396.144 95.4802,398.811 98.5,401.5C 94.8333,405.833 90.8333,409.833 86.5,413.5C 84.0164,410.516 81.3497,407.682 78.5,405C 82.3705,401.298 86.0371,397.464 89.5,393.5 Z"/></g>
<g><path style="opacity:1" fill="#f2f4f5" d="M 341.5,419.5 C 332.833,420.833 324.167,420.833 315.5,419.5C 316.363,411.636 320.696,408.303 328.5,409.5C 336.304,408.303 340.637,411.636 341.5,419.5 Z"/></g>
<g><path style="opacity:1" fill="#bdbfbf" d="M 315.5,419.5 C 324.167,420.833 332.833,420.833 341.5,419.5C 342.043,419.56 342.376,419.893 342.5,420.5C 333.167,421.833 323.833,421.833 314.5,420.5C 314.624,419.893 314.957,419.56 315.5,419.5 Z"/></g>
<g><path style="opacity:1" fill="#343434" d="M 411.5,421.5 C 412.483,425.298 412.817,429.298 412.5,433.5C 327.5,433.5 242.5,433.5 157.5,433.5C 241.998,432.501 326.665,432.167 411.5,432.5C 411.5,428.833 411.5,425.167 411.5,421.5 Z"/></g>
</svg>
