<?xml version="1.0" standalone="no"?>
<!DOCTYPE svg PUBLIC "-//W3C//DTD SVG 20010904//EN"
 "http://www.w3.org/TR/2001/REC-SVG-20010904/DTD/svg10.dtd">
<svg version="1.0" xmlns="http://www.w3.org/2000/svg"
 width="156.000000pt" height="135.000000pt" viewBox="0 0 156.000000 135.000000"
 preserveAspectRatio="xMidYMid meet">

<g transform="translate(0.000000,135.000000) scale(0.100000,-0.100000)"
fill="#bc4824" stroke="none">
<path d="M505 1263 c-68 -21 -149 -76 -191 -131 -48 -64 -78 -167 -71 -246 3
-33 11 -75 17 -93 l12 -32 121 6 c132 6 241 -9 339 -48 l50 -20 59 21 c33 11
66 20 74 20 32 0 50 60 50 170 0 96 -2 110 -29 160 -85 165 -262 244 -431 193z"/>
<path d="M1091 1236 c-21 -25 -50 -175 -51 -257 0 -85 14 -109 63 -109 43 0
67 32 67 88 -1 64 -33 230 -51 265 -14 25 -17 27 -28 13z"/>
<path d="M1080 798 c0 -18 4 -39 9 -47 15 -23 31 -2 31 40 0 32 -3 39 -20 39
-16 0 -20 -7 -20 -32z"/>
<path d="M320 714 c-90 -18 -220 -66 -220 -82 0 -20 25 -93 48 -142 40 -85
160 -240 186 -240 3 0 15 19 27 42 64 127 167 243 282 320 43 29 64 49 57 53
-7 4 -40 16 -74 27 -60 19 -250 33 -306 22z"/>
<path d="M915 675 c-226 -61 -406 -217 -488 -423 -22 -56 -22 -59 13 -77 30
-15 30 -15 40 11 104 273 343 459 632 493 l73 8 -110 1 c-63 0 -131 -5 -160
-13z"/>
<path d="M1104 631 c-163 -40 -325 -148 -430 -287 -62 -83 -123 -209 -108
-224 5 -5 26 -12 47 -15 28 -6 37 -4 37 7 0 26 70 160 114 216 43 57 118 133
166 170 78 61 228 122 347 142 46 7 45 8 -27 8 -41 0 -107 -8 -146 -17z"/>
<path d="M1263 600 c-177 -51 -319 -154 -424 -307 -44 -64 -102 -194 -91 -205
18 -18 66 -4 78 22 73 153 108 205 194 290 77 75 188 142 300 180 44 14 83 29
86 33 14 13 -81 5 -143 -13z"/>
<path d="M1370 547 c-75 -30 -94 -41 -177 -103 -83 -62 -167 -161 -212 -251
-45 -90 -43 -96 22 -74 50 17 54 21 98 102 68 123 219 278 324 333 44 23 9 18
-55 -7z"/>
<path d="M1349 403 c-52 -55 -110 -135 -103 -142 3 -3 26 16 51 43 89 98 135
187 52 99z"/>
</g>
</svg>
