<?xml version="1.0" encoding="UTF-8"?>
<svg xmlns="http://www.w3.org/2000/svg" xmlns:xlink="http://www.w3.org/1999/xlink" width="25px" height="28px" viewBox="0 0 25 27" version="1.1">
<defs>
<filter id="alpha" filterUnits="objectBoundingBox" x="0%" y="0%" width="100%" height="100%">
  <feColorMatrix type="matrix" in="SourceGraphic" values="0 0 0 0 1 0 0 0 0 1 0 0 0 0 1 0 0 0 1 0"/>
</filter>
<mask id="mask0">
  <g filter="url(#alpha)">
<rect x="0" y="0" width="25" height="27" style="fill:rgb(0%,0%,0%);fill-opacity:0.568627;stroke:none;"/>
  </g>
</mask>
<clipPath id="clip1">
  <rect x="0" y="0" width="25" height="27"/>
</clipPath>
<g id="surface5" clip-path="url(#clip1)">
<path style=" stroke:none;fill-rule:evenodd;fill:rgb(19.607843%,19.607843%,19.607843%);fill-opacity:1;" d="M 18.171875 6.46875 C 18.789062 5.769531 19.203125 4.957031 19.421875 4.03125 C 19.550781 3.65625 19.550781 3.28125 19.421875 2.90625 C 19.101562 2.65625 18.78125 2.65625 18.460938 2.90625 C 18.398438 4.542969 17.597656 5.605469 16.058594 6.09375 C 15.867188 6.09375 15.671875 6.09375 15.480469 6.09375 C 17.21875 5.550781 18.148438 4.363281 18.269531 2.53125 C 19.113281 2.152344 19.65625 2.402344 19.902344 3.28125 C 19.769531 4.605469 19.191406 5.667969 18.171875 6.46875 Z M 18.171875 6.46875 "/>
</g>
<mask id="mask1">
  <g filter="url(#alpha)">
<rect x="0" y="0" width="25" height="27" style="fill:rgb(0%,0%,0%);fill-opacity:0.627451;stroke:none;"/>
  </g>
</mask>
<clipPath id="clip2">
  <rect x="0" y="0" width="25" height="27"/>
</clipPath>
<g id="surface8" clip-path="url(#clip2)">
<path style=" stroke:none;fill-rule:evenodd;fill:rgb(20.784314%,20.784314%,21.176471%);fill-opacity:1;" d="M 15.480469 6.09375 C 15.671875 6.09375 15.867188 6.09375 16.058594 6.09375 C 13.589844 6.3125 11.089844 6.34375 8.558594 6.1875 C 7.023438 5.578125 6.191406 4.453125 6.058594 2.8125 C 5.746094 2.675781 5.460938 2.707031 5.191406 2.90625 C 5.042969 4.617188 5.71875 5.929688 7.210938 6.84375 C 7.417969 7.007812 7.453125 7.195312 7.308594 7.40625 C 6.746094 7.941406 6.328125 8.566406 6.058594 9.28125 C 3.796875 9.953125 2.257812 11.359375 1.441406 13.5 C 1.507812 13.65625 1.570312 13.8125 1.632812 13.96875 C 3.1875 14.597656 4.789062 14.816406 6.441406 14.625 C 6.703125 14.921875 6.832031 15.265625 6.828125 15.65625 C 6.761719 15.65625 6.699219 15.65625 6.632812 15.65625 C 6.492188 15.316406 6.300781 15.003906 6.058594 14.71875 C 0.390625 15.265625 -0.375 13.671875 3.75 9.9375 C 4.34375 9.585938 4.984375 9.335938 5.671875 9.1875 C 6.097656 8.515625 6.546875 7.859375 7.019531 7.21875 C 5.496094 6.167969 4.757812 4.730469 4.808594 2.90625 C 5.382812 2.15625 5.960938 2.15625 6.539062 2.90625 C 6.585938 4.214844 7.195312 5.183594 8.367188 5.8125 C 10.726562 6.078125 13.097656 6.171875 15.480469 6.09375 Z M 15.480469 6.09375 "/>
</g>
<mask id="mask2">
  <g filter="url(#alpha)">
<rect x="0" y="0" width="25" height="27" style="fill:rgb(0%,0%,0%);fill-opacity:0.180392;stroke:none;"/>
  </g>
</mask>
<clipPath id="clip3">
  <rect x="0" y="0" width="25" height="27"/>
</clipPath>
<g id="surface11" clip-path="url(#clip3)">
<path style=" stroke:none;fill-rule:evenodd;fill:rgb(20.392157%,20.392157%,20.392157%);fill-opacity:1;" d="M 18.171875 6.46875 C 17.984375 6.714844 17.792969 6.964844 17.597656 7.21875 C 18.097656 7.757812 18.449219 8.382812 18.652344 9.09375 C 20.660156 9.738281 22.132812 10.988281 23.078125 12.84375 C 23.230469 13.257812 23.195312 13.632812 22.980469 13.96875 C 23.011719 13.648438 22.980469 13.335938 22.882812 13.03125 C 21.882812 11.117188 20.34375 9.804688 18.269531 9.09375 C 18.167969 8.246094 17.753906 7.589844 17.019531 7.125 C 17.382812 6.855469 17.765625 6.636719 18.171875 6.46875 Z M 18.171875 6.46875 "/>
</g>
<mask id="mask3">
  <g filter="url(#alpha)">
<rect x="0" y="0" width="25" height="27" style="fill:rgb(0%,0%,0%);fill-opacity:0.184314;stroke:none;"/>
  </g>
</mask>
<clipPath id="clip4">
  <rect x="0" y="0" width="25" height="27"/>
</clipPath>
<g id="surface14" clip-path="url(#clip4)">
<path style=" stroke:none;fill-rule:evenodd;fill:rgb(22.745098%,22.745098%,22.745098%);fill-opacity:1;" d="M 22.980469 13.96875 C 22.890625 14.234375 22.699219 14.359375 22.402344 14.34375 C 22.378906 14.117188 22.574219 13.992188 22.980469 13.96875 Z M 22.980469 13.96875 "/>
</g>
<mask id="mask4">
  <g filter="url(#alpha)">
<rect x="0" y="0" width="25" height="27" style="fill:rgb(0%,0%,0%);fill-opacity:0.133333;stroke:none;"/>
  </g>
</mask>
<clipPath id="clip5">
  <rect x="0" y="0" width="25" height="27"/>
</clipPath>
<g id="surface17" clip-path="url(#clip5)">
<path style=" stroke:none;fill-rule:evenodd;fill:rgb(20.392157%,20.392157%,20.392157%);fill-opacity:1;" d="M 22.019531 14.53125 C 20.757812 14.859375 19.507812 14.984375 18.269531 14.90625 C 18.101562 15.203125 17.976562 15.515625 17.882812 15.84375 C 17.789062 17.21875 17.757812 18.59375 17.789062 19.96875 C 17.597656 18.691406 17.535156 17.378906 17.597656 16.03125 C 17.695312 15.527344 17.886719 15.058594 18.171875 14.625 C 19.367188 14.753906 20.554688 14.660156 21.730469 14.34375 C 21.878906 14.355469 21.972656 14.417969 22.019531 14.53125 Z M 22.019531 14.53125 "/>
</g>
<mask id="mask5">
  <g filter="url(#alpha)">
<rect x="0" y="0" width="25" height="27" style="fill:rgb(0%,0%,0%);fill-opacity:0.0745098;stroke:none;"/>
  </g>
</mask>
<clipPath id="clip6">
  <rect x="0" y="0" width="25" height="27"/>
</clipPath>
<g id="surface20" clip-path="url(#clip6)">
<path style=" stroke:none;fill-rule:evenodd;fill:rgb(12.54902%,12.54902%,12.941176%);fill-opacity:1;" d="M 6.632812 15.65625 C 6.699219 15.65625 6.761719 15.65625 6.828125 15.65625 C 6.964844 17.195312 7.09375 18.757812 7.210938 20.34375 C 7.050781 20.40625 6.984375 20.53125 7.019531 20.71875 C 6.875 19.058594 6.746094 17.371094 6.632812 15.65625 Z M 6.632812 15.65625 "/>
</g>
<mask id="mask6">
  <g filter="url(#alpha)">
<rect x="0" y="0" width="25" height="27" style="fill:rgb(0%,0%,0%);fill-opacity:0.505882;stroke:none;"/>
  </g>
</mask>
<clipPath id="clip7">
  <rect x="0" y="0" width="25" height="27"/>
</clipPath>
<g id="surface23" clip-path="url(#clip7)">
<path style=" stroke:none;fill-rule:evenodd;fill:rgb(14.117647%,14.117647%,14.117647%);fill-opacity:1;" d="M 17.597656 16.03125 C 17.535156 17.378906 17.597656 18.691406 17.789062 19.96875 C 17.746094 20.449219 17.617188 20.886719 17.402344 21.28125 C 17.402344 21.21875 17.402344 21.15625 17.402344 21.09375 C 17.339844 19.371094 17.40625 17.683594 17.597656 16.03125 Z M 17.597656 16.03125 "/>
</g>
<mask id="mask7">
  <g filter="url(#alpha)">
<rect x="0" y="0" width="25" height="27" style="fill:rgb(0%,0%,0%);fill-opacity:0.415686;stroke:none;"/>
  </g>
</mask>
<clipPath id="clip8">
  <rect x="0" y="0" width="25" height="27"/>
</clipPath>
<g id="surface26" clip-path="url(#clip8)">
<path style=" stroke:none;fill-rule:evenodd;fill:rgb(20.784314%,20.784314%,21.176471%);fill-opacity:1;" d="M 17.402344 21.09375 C 17.402344 21.15625 17.402344 21.21875 17.402344 21.28125 C 16.917969 22.753906 15.894531 23.628906 14.328125 23.90625 C 14.078125 23.949219 13.886719 23.886719 13.75 23.71875 C 15.492188 23.527344 16.710938 22.652344 17.402344 21.09375 Z M 17.402344 21.09375 "/>
</g>
<mask id="mask8">
  <g filter="url(#alpha)">
<rect x="0" y="0" width="25" height="27" style="fill:rgb(0%,0%,0%);fill-opacity:0.356863;stroke:none;"/>
  </g>
</mask>
<clipPath id="clip9">
  <rect x="0" y="0" width="25" height="27"/>
</clipPath>
<g id="surface29" clip-path="url(#clip9)">
<path style=" stroke:none;fill-rule:evenodd;fill:rgb(20.784314%,20.784314%,20.784314%);fill-opacity:1;" d="M 7.210938 20.34375 C 7.609375 22.542969 8.957031 23.667969 11.25 23.71875 C 11.042969 23.894531 10.789062 23.957031 10.480469 23.90625 C 8.574219 23.609375 7.417969 22.546875 7.019531 20.71875 C 6.984375 20.53125 7.050781 20.40625 7.210938 20.34375 Z M 7.210938 20.34375 "/>
</g>
<mask id="mask9">
  <g filter="url(#alpha)">
<rect x="0" y="0" width="25" height="27" style="fill:rgb(0%,0%,0%);fill-opacity:0.027451;stroke:none;"/>
  </g>
</mask>
<clipPath id="clip10">
  <rect x="0" y="0" width="25" height="27"/>
</clipPath>
<g id="surface32" clip-path="url(#clip10)">
<path style=" stroke:none;fill-rule:evenodd;fill:rgb(13.333333%,13.333333%,13.333333%);fill-opacity:1;" d="M 11.25 23.71875 C 12.082031 23.71875 12.917969 23.71875 13.75 23.71875 C 13.886719 23.886719 14.078125 23.949219 14.328125 23.90625 C 13.042969 24.15625 11.761719 24.15625 10.480469 23.90625 C 10.789062 23.957031 11.042969 23.894531 11.25 23.71875 Z M 11.25 23.71875 "/>
</g>
</defs>
<g id="surface1">
<path style=" stroke:none;fill-rule:evenodd;fill:rgb(0%,0%,0%);fill-opacity:1;" d="M 16.058594 6.09375 C 17.597656 5.605469 18.398438 4.542969 18.460938 2.90625 C 18.78125 2.65625 19.101562 2.65625 19.421875 2.90625 C 19.550781 3.28125 19.550781 3.65625 19.421875 4.03125 C 19.203125 4.957031 18.789062 5.769531 18.171875 6.46875 C 17.765625 6.636719 17.382812 6.855469 17.019531 7.125 C 17.753906 7.589844 18.167969 8.246094 18.269531 9.09375 C 20.34375 9.804688 21.882812 11.117188 22.882812 13.03125 C 22.980469 13.335938 23.011719 13.648438 22.980469 13.96875 C 22.574219 13.992188 22.378906 14.117188 22.402344 14.34375 C 22.339844 14.5 22.210938 14.5625 22.019531 14.53125 C 21.972656 14.417969 21.878906 14.355469 21.730469 14.34375 C 20.554688 14.660156 19.367188 14.753906 18.171875 14.625 C 17.886719 15.058594 17.695312 15.527344 17.597656 16.03125 C 17.40625 17.683594 17.339844 19.371094 17.402344 21.09375 C 16.710938 22.652344 15.492188 23.527344 13.75 23.71875 C 12.917969 23.71875 12.082031 23.71875 11.25 23.71875 C 8.957031 23.667969 7.609375 22.542969 7.210938 20.34375 C 7.09375 18.757812 6.964844 17.195312 6.828125 15.65625 C 6.832031 15.265625 6.703125 14.921875 6.441406 14.625 C 4.789062 14.816406 3.1875 14.597656 1.632812 13.96875 C 1.570312 13.8125 1.507812 13.65625 1.441406 13.5 C 2.257812 11.359375 3.796875 9.953125 6.058594 9.28125 C 6.328125 8.566406 6.746094 7.941406 7.308594 7.40625 C 7.453125 7.195312 7.417969 7.007812 7.210938 6.84375 C 5.71875 5.929688 5.042969 4.617188 5.191406 2.90625 C 5.460938 2.707031 5.746094 2.675781 6.058594 2.8125 C 6.191406 4.453125 7.023438 5.578125 8.558594 6.1875 C 11.089844 6.34375 13.589844 6.3125 16.058594 6.09375 Z M 16.058594 6.09375 "/>
<use xlink:href="#surface5" mask="url(#mask0)"/>
<use xlink:href="#surface8" mask="url(#mask1)"/>
<use xlink:href="#surface11" mask="url(#mask2)"/>
<use xlink:href="#surface14" mask="url(#mask3)"/>
<use xlink:href="#surface17" mask="url(#mask4)"/>
<use xlink:href="#surface20" mask="url(#mask5)"/>
<use xlink:href="#surface23" mask="url(#mask6)"/>
<use xlink:href="#surface26" mask="url(#mask7)"/>
<use xlink:href="#surface29" mask="url(#mask8)"/>
<use xlink:href="#surface32" mask="url(#mask9)"/>
</g>
</svg>
