<svg width="27" height="25" viewBox="0 0 27 25" fill="none" xmlns="http://www.w3.org/2000/svg">
<g clip-path="url(#clip0_1_8637)">
<path d="M13.868 2.18604C7.88492 2.18604 3.03467 6.66319 3.03467 12.186C3.03467 17.7089 7.88492 22.186 13.868 22.186C19.8511 22.186 24.7013 17.7089 24.7013 12.186C24.7013 9.53387 23.56 6.99033 21.5283 5.11497C19.4967 3.2396 16.7412 2.18604 13.868 2.18604ZM13.868 5.18604C15.6629 5.18604 17.118 6.52918 17.118 8.18604C17.118 9.84289 15.6629 11.186 13.868 11.186C12.0731 11.186 10.618 9.84289 10.618 8.18604C10.618 6.52918 12.0731 5.18604 13.868 5.18604ZM19.9563 16.346C18.5257 18.1244 16.2677 19.1728 13.868 19.1728C11.4683 19.1728 9.21028 18.1244 7.77967 16.346C7.56215 16.0493 7.53322 15.6678 7.70383 15.346L7.93133 14.906C8.46745 13.857 9.61063 13.1873 10.8672 13.186H16.8688C18.1077 13.1876 19.2379 13.8391 19.783 14.866L20.0322 15.336C20.207 15.6605 20.178 16.0469 19.9563 16.346Z" fill="#152e0c"/>
</g>
<defs>
<clipPath id="clip0_1_8637">
<rect width="26" height="24" fill="white" transform="translate(0.86792 0.186035)"/>
</clipPath>
</defs>
</svg>
